<?xml version="1.0" standalone="no"?>
<!DOCTYPE svg PUBLIC "-//W3C//DTD SVG 1.1//EN" "http://www.w3.org/Graphics/SVG/1.1/DTD/svg11.dtd" >
<svg xmlns="http://www.w3.org/2000/svg">
<metadata>
Created by FontForge 20120731 at Thu Jan 12 14:20:12 2017
 By admin
</metadata>
<defs>
<font id="iconfont" horiz-adv-x="1024" >
  <font-face 
    font-family="iconfont"
    font-weight="500"
    font-stretch="normal"
    units-per-em="1024"
    panose-1="2 0 6 3 0 0 0 0 0 0"
    ascent="896"
    descent="-128"
    x-height="792"
    bbox="-0.285714 -212.723 1255 896.071"
    underline-thickness="0"
    underline-position="0"
    unicode-range="U+0078-E8DF"
  />
<missing-glyph 
 />
    <glyph glyph-name=".notdef" 
 />
    <glyph glyph-name=".notdef" 
 />
    <glyph glyph-name=".null" horiz-adv-x="0" 
 />
    <glyph glyph-name="nonmarkingreturn" horiz-adv-x="341" 
 />
    <glyph glyph-name="x" unicode="x" horiz-adv-x="1001" 
d="M281 543q-27 -1 -53 -1h-83q-18 0 -36.5 -6t-32.5 -18.5t-23 -32t-9 -45.5v-76h912v41q0 16 -0.5 30t-0.5 18q0 13 -5 29t-17 29.5t-31.5 22.5t-49.5 9h-133v-97h-438v97zM955 310v-52q0 -23 0.5 -52t0.5 -58t-10.5 -47.5t-26 -30t-33 -16t-31.5 -4.5q-14 -1 -29.5 -0.5
t-29.5 0.5h-32l-45 128h-439l-44 -128h-29h-34q-20 0 -45 1q-25 0 -41 9.5t-25.5 23t-13.5 29.5t-4 30v167h911zM163 247q-12 0 -21 -8.5t-9 -21.5t9 -21.5t21 -8.5q13 0 22 8.5t9 21.5t-9 21.5t-22 8.5zM316 123q-8 -26 -14 -48q-5 -19 -10.5 -37t-7.5 -25t-3 -15t1 -14.5
t9.5 -10.5t21.5 -4h37h67h81h80h64h36q23 0 34 12t2 38q-5 13 -9.5 30.5t-9.5 34.5q-5 19 -11 39h-368zM336 498v228q0 11 2.5 23t10 21.5t20.5 15.5t34 6h188q31 0 51.5 -14.5t20.5 -52.5v-227h-327z" />
    <glyph glyph-name="diannao" unicode="&#xe63e;" horiz-adv-x="1000" 
d="M405 -57h219v110h-219v-110zM897 709h-765q-23 0 -39 -16t-16 -39v-492q0 -22 16 -38.5t39 -16.5h765q23 0 39 16.5t16 38.5v492q0 23 -16 39t-39 16zM569 162h-109v55h109v-55zM897 272h-765v382h765v-382z" />
    <glyph glyph-name="sousuo1" unicode="&#xe657;" horiz-adv-x="1000" 
d="M808 54l-73 75q48 76 48 167q0 130 -90.5 222t-218 92t-218 -92t-90.5 -222t90.5 -222t217.5 -92q67 0 128 28l22 -23v0l60 -60q25 -26 62 -26t62.5 26t25.5 63.5t-26 63.5zM262 296.5q0 89.5 62 153t150 63.5t150.5 -63.5t62.5 -153t-62.5 -153t-150.5 -63.5t-150 63.5
t-62 153z" />
    <glyph glyph-name="weixin" unicode="&#xe601;" horiz-adv-x="1000" 
d="M352 435q12 0 19.5 7.5t7.5 20.5t-7.5 20.5t-19.5 7.5q-14 0 -24 -8t-10 -20t10 -20t24 -8zM507 491q-13 0 -23 -8t-10 -20t10 -20t23 -8t20.5 7.5t7.5 20.5t-7.5 20.5t-20.5 7.5zM702 282q13 0 20.5 7t7.5 16t-8 15.5t-20 6.5q-8 0 -15 -7t-7 -15.5t7 -15.5t15 -7z
M580 282q12 0 20 7t8 16t-8 15.5t-20 6.5q-8 0 -15 -7t-7 -15.5t7 -15.5t15 -7zM77 316.5q0 -89.5 34.5 -171t93.5 -140t140.5 -93.5t170.5 -35t170.5 35t140 93.5t93.5 140t35 171t-35 170.5t-93.5 140t-140 93.5t-170.5 34.5t-170.5 -34.5t-140.5 -93.5t-93.5 -140
t-34.5 -170.5zM627 430q-79 0 -134 -52.5t-55 -126.5q0 -23 7 -47q-11 -1 -21 -1q-22 0 -78 11l-78 -39l22 68q-89 63 -89 152q0 80 65.5 136t157.5 56q82 0 146 -45t79 -113q-12 1 -22 1zM831 254q0 -71 -78 -130l16 -56l-61 33q-44 -11 -67 -11q-79 0 -134 48t-55 116
t55 116t134 48q76 0 133 -48.5t57 -115.5z" />
    <glyph glyph-name="jiahao" unicode="&#xe627;" 
d="M862 297q0 -24 -17 -41t-41 -17h-584q-24 0 -41 17t-17 41v29q0 24 17 41t41 17h584q24 0 41 -17t17 -41v-29zM527 661q23 0 40.5 -17t17.5 -41v-583q0 -24 -17.5 -41t-40.5 -17h-29q-24 0 -41.5 17t-17.5 41v583q0 24 17.5 41t41.5 17h29z" />
    <glyph glyph-name="weixin1" unicode="&#xe612;" 
d="M669 495q14 0 30 -2q-20 95 -110.5 157.5t-206.5 62.5q-130 0 -222 -77.5t-92 -189.5q0 -124 126 -212l-31 -94l109 55q80 -16 110 -16q14 0 30 1q-10 33 -10 66q0 103 77.5 176t189.5 73zM500 580q18 0 28.5 -11t10.5 -28.5t-10.5 -28.5t-28.5 -11t-32.5 11.5
t-14.5 28.5t14.5 28t32.5 11zM280 501q-18 0 -32.5 11.5t-14.5 28.5t14.5 28t32.5 11t29 -11t11 -28.5t-11 -28.5t-29 -11zM956 250q0 93 -80 160.5t-187 67.5q-112 0 -189.5 -67t-77.5 -161.5t77.5 -161t189.5 -66.5q31 0 94 16l86 -47l-23 78q110 83 110 181zM602 289
q-11 0 -21 10t-10 21.5t10 21.5t21 10q17 0 28.5 -9.5t11.5 -22t-11.5 -22t-28.5 -9.5zM775 289q-12 0 -21.5 10t-9.5 21.5t9.5 21.5t21.5 10q17 0 28 -9.5t11 -22t-11 -22t-28 -9.5z" />
    <glyph glyph-name="iconfontcha" unicode="&#xe653;" 
d="M755 599l-243 -242l-243 242q-10 10 -23.5 10t-23.5 -9.5t-10 -23.5t10 -24l243 -243l-243 -243q-10 -9 -10 -23t10 -24t23.5 -10t23.5 10l243 243l243 -243q10 -10 23.5 -10t23.5 10t10 24t-10 23l-243 243l243 243q10 10 10 24t-10 23.5t-23.5 9.5t-23.5 -10z" />
    <glyph glyph-name="yinpin" unicode="&#xe655;" 
d="M512 701q-102 0 -188.5 -50t-137 -137t-50.5 -189t50.5 -188.5t137 -137t188.5 -50.5t188.5 50.5t137 137t50.5 188.5t-50.5 189t-137 137t-188.5 50v0zM512 -10q-91 0 -168 45t-122 122t-45 168t45 168.5t122 122t168 44.5t168 -44.5t122 -122t45 -168.5t-45 -168
t-122 -122t-168 -45v0zM465 479q-4 5 -11 5q-5 0 -8 -2l-2 -2q-6 -6 -4 -13v-284q-2 -7 4 -13q10 -10 20 0l188 144q5 5 5 11t-5 11l-187 143v0zM484 244v162l105 -81l-105 -81v0zM828 177z" />
    <glyph glyph-name="37" unicode="&#xe61e;" 
d="M138 387q-32 0 -54 -24q-21 -22 -20.5 -53t23.5 -52l312 -299q24 -23 58 -21q33 3 54 30l434 575q19 25 15 55.5t-29 49.5q-24 18 -55.5 13.5t-49.5 -28.5l-384 -508l-252 241q-22 21 -52 21v0z" />
    <glyph glyph-name="shouji1" unicode="&#xe737;" 
d="M692 716h-335q-31 0 -53.5 -20.5t-22.5 -48.5v-694q0 -28 22.5 -48.5t53.5 -20.5h335q31 0 53.5 20.5t22.5 48.5v694q0 28 -22.5 48.5t-53.5 20.5zM479 661h91q6 0 10.5 -4.5t4.5 -10t-4.5 -9.5t-10.5 -4h-91q-6 0 -10.5 4t-4.5 9.5t4.5 10t10.5 4.5zM524.5 -88
q-18.5 0 -32 12t-13.5 29.5t13.5 29.5t32 12t32 -12t13.5 -29.5t-13.5 -29.5t-32 -12zM738 23h-427v554h427v-554z" />
    <glyph glyph-name="sousuo" unicode="&#xe606;" 
d="M950 -12l-270 272q81 96 81 222q0 95 -46.5 175t-127 126.5t-175 46.5t-174.5 -46.5t-126.5 -126.5t-46.5 -174.5t46.5 -174.5t126.5 -126.5t175 -46.5q130 0 228 85l270 -272q8 -8 19.5 -8t19.5 8.5t8 20t-8 19.5v0zM413 190q-121 0 -207 85.5t-86 207t86 207t207 85.5
t206.5 -85.5t85.5 -207t-85.5 -207t-206.5 -85.5z" />
    <glyph glyph-name="shubiao" unicode="&#xe645;" 
d="M512 -175q-131 0 -224 92.5t-93 224.5v316q0 132 93 224.5t224 92.5t224 -92.5t93 -224.5v-316q0 -132 -93 -224.5t-224 -92.5v0zM554 522q0 17 -12 29.5t-29.5 12.5t-30 -12.5t-12.5 -29.5v-190q0 -18 12.5 -30.5t30 -12.5t29.5 12.5t12 30.5v190v0z" />
    <glyph glyph-name="shouji" unicode="&#xe607;" 
d="M741 647h-463v55q0 5 3.5 8.5t8.5 3.5h439q5 0 8.5 -3.5t3.5 -8.5v-55zM741 86h-463v528h463v-528zM741 -100q0 -5 -3.5 -8.5t-8.5 -3.5h-439q-5 0 -8.5 3.5t-3.5 8.5v153h463v-153zM729 747h-439q-19 0 -32 -13.5t-13 -31.5v-802q0 -19 13 -32t32 -13h439q19 0 32 13
t13 32v802q0 18 -13 31.5t-32 13.5zM460 -13h99v-33h-99v33z" />
    <glyph glyph-name="shezhi" unicode="&#xe60e;" 
d="M644 -105v0q-25 0 -41 18q-16 17 -42.5 35t-48.5 18q-23 0 -49.5 -18t-41.5 -34q-16 -18 -41 -18q-11 0 -21 5h-1l-107 60l-1 1q-14 10 -19 27.5t2 33.5q10 23 10 43q0 47 -33 80t-80 33h-4v0q-14 0 -24 11t-13 30q-10 48 -10 85t10 85q3 19 13.5 30t23.5 10h4
q47 0 80 33.5t33 79.5q0 21 -10 44q-7 16 -2 33.5t19 27.5l2 1l112 62h1q10 4 21 4q25 0 41 -16q15 -17 41 -34t48 -17t47.5 17t41.5 33t40 16q12 0 21 -4l2 -1l108 -60l1 -1q15 -10 20 -27.5t-2 -33.5q-10 -23 -10 -44q0 -46 33 -79.5t80 -33.5h3q14 1 24.5 -10t13.5 -30
q9 -48 9 -85t-9 -85q-3 -19 -13.5 -30t-24.5 -11h-3q-47 0 -80 -33t-33 -80q0 -20 10 -43q7 -16 2 -33.5t-20 -27.5l-1 -1l-110 -61l-1 -1q-10 -4 -21 -4zM641 -53q1 -1 3 -1v0l103 57q-13 33 -13 63q0 66 45 113.5t110 50.5q8 45 8 75t-8 75q-65 3 -110 50.5t-45 112.5
q0 31 13 64l-101 56h-1q-2 0 -3 -1q-16 -16 -38 -32q-47 -33 -88 -33t-89 34q-22 16 -37 32q-2 1 -4 1h-1l-105 -57q14 -33 14 -64q0 -65 -45 -112.5t-110 -50.5q-8 -45 -8 -75t8 -75q65 -3 110 -50.5t45 -113.5q0 -30 -14 -63l100 -55v0h3q16 18 38 34q49 35 91 35t90 -36
q23 -16 39 -34zM512 155q-62 0 -106 44t-44 106.5t44 106.5t106 44t106 -44t44 -106.5t-44 -106.5t-106 -44zM512 405q-41 0 -70 -29t-29 -70.5t29 -70.5t70 -29t70 29t29 70.5t-29 70.5t-70 29z" />
    <glyph glyph-name="jingxiaoshang" unicode="&#xe62d;" 
d="M677 283q-17 0 -33 -7q2 -21 0 -41v0v0l-12 -96q20 -14 45 -14q33 0 56.5 23t23.5 56q0 23 -13 42l90 90h50l75 75l-72 2l-3 72l-74 -74v-50l-91 -90q-19 12 -42 12zM774 411q0 14 11 24l19 20q-60 30 -127 30q-87 0 -158 -49q28 -11 52 -30q50 26 106 26q51 0 97 -21z
M928 331l-19 -20q-10 -10 -25 -10q22 -46 22 -97q0 -94 -67 -161.5t-162 -67.5q-40 0 -78 14q-13 -26 -28 -45q51 -21 106 -21q117 0 199.5 82.5t82.5 198.5q0 67 -31 127zM853 204q0 43 -20 81l-37 -36q9 -22 9 -45q0 -53 -37.5 -90t-90.5 -37q-26 0 -51 11l-2 -16l-1 -1
v-2q-3 -16 -7 -30q30 -11 61 -11q73 0 124.5 51.5t51.5 124.5zM677 331q23 0 45 -8l36 37q-37 20 -81 20q-35 0 -68 -14q15 -20 24 -43q21 8 44 8zM200 398h77q-3 -46 19 -64q-1 -8 -3 -21t-7.5 -53t-8 -69t-4 -68.5t3.5 -52.5q7 -30 21.5 -62t30.5 -32q17 1 30 33t19 61
q12 65 -28 264q16 7 20 64h85v1q59 0 103 -47.5t37 -111.5l-20 -162q-12 -69 -48.5 -112t-92.5 -43h-214q-55 0 -91.5 44t-48.5 113l-21 163q-7 62 37 108.5t104 46.5zM187 606.5q0 -58.5 41 -99.5t99.5 -41t99.5 41t41 99.5t-41 99.5t-99.5 41t-99.5 -41t-41 -99.5z" />
    <glyph glyph-name="iconfontdanxuankuangweixuanzhong" unicode="&#xe638;" 
d="M512 745q-91 0 -173 -35t-142 -95t-95 -142t-35 -173t35 -173t95 -142t142 -95t173 -35t173.5 35t142 95t94.5 142t35 173t-35 173t-94.5 142t-142 95t-173.5 35zM512 -44q-93 0 -172.5 46t-125.5 125.5t-46 172.5t46 172.5t125.5 125.5t172.5 46t172.5 -46t125.5 -125.5
t46 -172.5t-46 -172.5t-125.5 -125.5t-172.5 -46z" />
    <glyph glyph-name="shijian" unicode="&#xe65a;" 
d="M512 684q-159 0 -271.5 -112.5t-112.5 -271.5t112.5 -271.5t271.5 -112.5t271.5 112.5t112.5 271.5t-112.5 271.5t-271.5 112.5zM512 -20q-132 0 -226 94t-94 226t94 226t226 94t226 -94t94 -226t-94 -226t-226 -94zM661 206l-133 77v209q0 13 -9.5 22.5t-22.5 9.5
t-22.5 -9.5t-9.5 -22.5v-224q0 -13 24 -27q2 -3 15 -11l132 -80q11 -6 22.5 -2.5t17.5 14.5q7 12 2.5 24.5t-16.5 19.5z" />
    <glyph glyph-name="snimicfuxuanno" unicode="&#xe621;" 
d="M960 -148h-896v896h896v-896zM832 620h-640v-640h640v640z" />
    <glyph glyph-name="snimicfuxuanyes" unicode="&#xe622;" 
d="M64 748v-896h896v896h-896zM375 58l-198 218l94 86l116 -127l372 306l82 -98zM64 748v-896h896v896h-896zM375 58l-198 218l94 86l116 -127l372 306l82 -98z" />
    <glyph glyph-name="btndanxuankuangxuanzhong" unicode="&#xe639;" 
d="M512 748q-187 0 -317.5 -130.5t-130.5 -317.5t130.5 -317.5t317.5 -130.5t317.5 130.5t130.5 317.5t-130.5 317.5t-317.5 130.5zM512 172q-53 0 -90.5 37.5t-37.5 90.5t37.5 90.5t90.5 37.5t90.5 -37.5t37.5 -90.5t-37.5 -90.5t-90.5 -37.5z" />
    <glyph glyph-name="xiansuo" unicode="&#xe600;" 
d="M72 320q2 -1 4 -2.5t7.5 -3t10.5 -0.5t10 6.5t8 17.5q0 1 1 2q6 30 9.5 43.5t14.5 47t28.5 63.5t41.5 59q4 4 11 12.5t32 30.5t53.5 40.5t75.5 37t98 26.5q1 1 9.5 0t15.5 7t2 24q0 1 -0.5 2.5t-3 5.5t-7.5 6t-13.5 4t-22.5 0q-5 0 -15 -1t-40.5 -8t-60.5 -19.5
t-72 -40.5t-80 -66l-8.5 -8.5t-21 -25t-29.5 -41t-30.5 -55.5t-27.5 -70l-8 -56v0q-5 -33 8 -38zM545 741q-1 -1 -2 -3.5t-3 -8t-1 -10.5t7 -10t17 -8q2 0 3 -1q29 -6 42.5 -9.5t47 -14t64 -28.5t58.5 -42q5 -4 13 -11t30.5 -32t40.5 -53.5t37 -75.5t26 -98q2 -1 0.5 -9.5
t6.5 -15.5t25 -2q1 0 2.5 0.5t5.5 3t6 7.5t4 13.5t-1 22.5q0 5 -0.5 15t-7.5 40.5t-19.5 60.5t-40.5 72t-66 80q-3 3 -9 8.5t-25 21t-41 29.5t-56 30.5t-70 27.5l-55 8v0q-33 5 -39 -8zM969 266q-1 1 -3 2.5t-7.5 3t-10.5 0.5t-10.5 -7t-7.5 -17q-1 -1 -1 -3
q-6 -29 -9.5 -42.5t-14.5 -47t-28.5 -63.5t-42.5 -59q-3 -5 -10 -13t-32 -30t-53.5 -40.5t-75.5 -37t-98 -26.5q-1 -1 -9.5 0t-15.5 -7t-2 -24q0 -1 0.5 -2.5t3 -5.5t7 -6t13.5 -4.5t22 0.5q6 0 16 0.5t40 8t60.5 20t72.5 40.5t79 66q4 3 9.5 8.5t21 25t29.5 41t30.5 55.5
t26.5 70l9 56v0q5 33 -9 38zM494 -161q1 1 2.5 3t3 7.5t0.5 10.5t-6.5 10.5t-17.5 7.5q-1 1 -2 1q-30 6 -43.5 9.5t-46.5 14.5t-63.5 28.5t-59.5 42.5q-4 3 -12.5 10t-30.5 32t-40.5 53.5t-37 75.5t-26.5 98q-1 1 0.5 9.5t-7 15.5t-24.5 2q-1 0 -2.5 -0.5t-5.5 -3t-6 -7
t-4 -13.5t0 -22q0 -6 1 -16t8 -40.5t19.5 -60.5t40.5 -72t66 -79q3 -4 8.5 -9.5t25 -21t41 -29.5t56 -30.5t69.5 -26.5l56 -9v0q33 -5 38 9zM239 318q1 -1 3 -2t6.5 -2t9 0t9.5 6.5t7 15.5q22 80 54 112q6 8 16.5 19t42 32.5t61.5 29.5l39 12q1 0 3 0.5t7 3t7.5 6t2 11
t-5.5 15.5q-1 2 -3.5 4t-11.5 5t-22 1q-6 0 -18 -1t-46.5 -15t-65.5 -39q-7 -6 -18.5 -16.5t-35.5 -41t-35 -57.5t-17 -51v0q-1 -2 -2 -5t-3 -11t-1.5 -14t4.5 -11.5t13 -6.5zM544 575q0 -1 -1 -2.5t-2.5 -6.5t-0.5 -9t6.5 -9t16.5 -8q80 -21 112 -53q7 -6 18 -16.5
t33 -42.5t29 -61l12 -39q1 -1 1.5 -3.5t3 -7t6 -7t10.5 -2t16 5.5q2 1 4 3t5 11.5t1 21.5q0 7 -1.5 19t-15.5 46t-39 66q-6 7 -16.5 18t-40.5 35t-58 36q-26 11 -51 17v0q-33 16 -44 -2q-3 -4 -4 -10zM802 273q-1 0 -2.5 1t-6.5 2.5t-9.5 0t-9 -7t-7.5 -15.5
q-21 -80 -53 -112q-6 -7 -17 -18.5t-42.5 -33t-60.5 -28.5l-39 -13q-2 0 -4 -0.5t-7 -3t-7.5 -6t-2 -10.5t6.5 -16q1 -2 3 -4t11.5 -5t21.5 -1q7 0 18.5 1t46 15t66.5 39q7 6 18 16.5t35 41t36 57.5q10 27 16 51v0q17 35 -3 46q-3 2 -8 3zM498 15q1 1 2 2.5t2 6.5t0 9
t-6.5 9t-15.5 8q-81 21 -113 53q-7 6 -18 16.5t-33 42.5t-29 61l-12 39q0 1 -0.5 3.5t-3 7t-6.5 7t-11 2.5t-16 -6q-1 -1 -3.5 -3t-5 -11.5t-1.5 -21.5q0 -7 1.5 -19t15.5 -46t39 -66q6 -7 16.5 -18t40.5 -35t58 -36q26 -11 51 -16v0q35 -17 45 2q2 4 3 9zM364 319
q3 -3 8 -5.5t16.5 0t18.5 16.5q0 2 1.5 6t8.5 15.5t16 22t26 23t37 21.5q1 0 2.5 1.5t4 6t3.5 9.5t0 11.5t-5 13.5q-1 2 -4 3.5t-13 3.5t-24 -6q-3 -1 -8 -2.5t-18 -9t-25.5 -18t-26.5 -31t-24 -45.5v0q-11 -32 6 -36zM553 459q-2 -3 -4.5 -8t-0.5 -16.5t16 -18.5
q3 0 7 -1.5t15.5 -8.5t21.5 -16t22.5 -26t21.5 -37q1 -1 2.5 -2t6 -3.5t9 -4t11.5 -0.5t13 6q2 1 3.5 3.5t3.5 12.5t-6 24q-1 3 -2.5 8t-9 18.5t-18 25.5t-31 26t-45.5 24l-2 0.5t-4.5 1t-6 1t-7 0.5t-7 -0.5t-6 -3t-3.5 -5.5zM684 273q-3 3 -8 5.5t-16.5 0t-18.5 -16.5
q0 -2 -1.5 -6t-8 -15.5t-16 -22t-26 -23t-37.5 -21.5l-2 -2t-3.5 -5.5t-3.5 -9.5t0 -11.5t5 -13.5q1 -2 3.5 -3.5t12.5 -3.5t25 6q2 1 7 2.5t18.5 9t25.5 18t26 31t24 45.5v0q11 31 -6 36zM501 136q3 3 5.5 8t0 16.5t-16.5 18.5q-2 0 -6 1.5t-15.5 8.5t-22 16t-23 25.5
t-21.5 37.5q0 1 -1.5 2t-6 3.5t-9.5 4t-11.5 0.5t-13.5 -6q-2 -1 -3.5 -3.5t-3.5 -12.5t7 -25q0 -2 1.5 -7t9 -18.5t18.5 -25.5t31 -26t45 -24q4 -4 21 -3q13 0 15 9z" />
    <glyph glyph-name="xiazai" unicode="&#xe64b;" 
d="M514 157q0 -10 -8.5 -17t-20.5 -7v0q-12 0 -20.5 7t-8.5 17v414q0 9 8.5 16t20.5 7v0q12 0 20.5 -7t8.5 -16v-414zM505 202q11 -11 11 -25.5t-11 -25.5v0q-10 -10 -25 -10t-25 10l-152 152q-11 10 -11 25t11 25v0q10 11 25 11t25 -11zM618 353q10 11 25 11t25 -11v0
q11 -10 11 -25t-11 -25l-151 -152q-11 -10 -25.5 -10t-25.5 10v0q-10 11 -10 25.5t10 25.5zM778 50q0 -14 -10 -24.5t-25 -10.5h-485q-15 0 -25 10.5t-10 24.5v0q0 15 10 25t25 10h485q15 0 25 -10t10 -25v0z" />
    <glyph glyph-name="toprightcorner01" unicode="&#xe631;" 
d="M922 812h-922l1024 -1024v922q0 42 -30 72t-72 30zM891 642l-236 -307q-6 -8 -15.5 -9t-16.5 5q-1 1 -1 2l-2 2l-98 106q-10 12 -10 28t10.5 27t25 11t24.5 -11q2 -2 4 -5l63 -99l217 283q6 8 15.5 9t16.5 -6t8 -17.5t-5 -18.5z" />
    <glyph glyph-name="jikediancanicon09" unicode="&#xe609;" 
d="M511.5 754q-92.5 0 -176.5 -36t-145 -97t-97.5 -145t-36.5 -176.5t36.5 -177t97.5 -145.5t145 -97t176.5 -36t177 36t145.5 97t97 145.5t36 177t-36 176.5t-97 145t-145.5 97t-177 36zM511.5 -108q-110.5 0 -204.5 54.5t-148.5 148.5t-54.5 204.5t54.5 204t148.5 148
t204.5 54.5t204.5 -54.5t148.5 -148t54.5 -204t-54.5 -204.5t-148.5 -148.5t-204.5 -54.5zM683 332h-139v139q0 9 -10.5 16.5t-21.5 7.5t-21.5 -7.5t-10.5 -16.5v-139h-140q-10 0 -17 -10.5t-7 -21.5t7 -21.5t17 -10.5h140v-140q0 -10 10.5 -17t21.5 -7t21.5 7t10.5 17v140
h139q10 0 17 10.5t7 21.5t-7 21.5t-17 10.5z" />
    <glyph glyph-name="jikediancanicon15" unicode="&#xe60a;" 
d="M513 -150q-135 0 -248 75l30 29q101 -63 218 -63q112 0 206 54.5t148.5 149t54.5 205.5t-54.5 205.5t-149 149t-205.5 54.5t-205 -54.5t-149 -149t-55 -205.5q0 -128 73 -232l-29 -30q-85 118 -85 262q0 92 36 175t96 143.5t143.5 96t175 35.5t175 -35.5t143.5 -96
t95.5 -143.5t35.5 -175t-35.5 -175t-95.5 -143.5t-143.5 -96t-175.5 -35.5v0zM329 341q-17 0 -29 12t-12 29t12 29t29 12t29 -12t12 -29t-12 -29t-29 -12v0zM657 382q0 17 11.5 29t28.5 12t29 -12t12 -29t-12 -29t-29 -12t-28.5 12t-11.5 29v0zM513 55q-80 0 -144 46.5
t-88 120.5q17 5 39 11q21 -61 74 -99.5t119.5 -38.5t119 38.5t73.5 99.5q23 -6 40 -11q-25 -74 -88.5 -120.5t-144.5 -46.5v0zM513 55zM513 -156q-137 0 -251 75l-7 5l39 38l5 -2q98 -63 214 -63q110 0 202.5 54t146.5 147t54 202t-54 202t-146.5 147t-202 54t-202 -54
t-146.5 -147t-54 -202q0 -126 71 -229l3 -4l-38 -39l-4 7q-86 119 -86 265q0 93 36 177.5t97.5 145.5t146 97t177 36t177 -36t145.5 -97t97.5 -145.5t36.5 -177.5t-36.5 -177.5t-97.5 -145.5t-145.5 -97t-177.5 -36zM276 -74q108 -70 237 -70q90 0 172.5 35.5t142 95
t94.5 141.5t35 172t-35 172t-94.5 141.5t-142 95t-172.5 35.5t-172 -35.5t-141.5 -95t-94.5 -141.5t-35 -172q0 -138 79 -252l20 20q-71 105 -71 232q0 113 55.5 208.5t151.5 151t208.5 55.5t208 -55.5t151.5 -151t56 -208.5t-56 -208.5t-151.5 -151t-208.5 -55.5
q-117 0 -217 61zM513.5 48q-81.5 0 -147.5 47.5t-91 124.5l-2 6l6 2q17 5 40 11l5 1l2 -5q21 -60 72.5 -96.5t115 -36.5t115 36.5t71.5 96.5l2 6l6 -2q23 -5 40 -11l6 -2l-2 -6q-26 -77 -91.5 -124.5t-147 -47.5zM289 218q26 -71 87.5 -114t137 -43t137 43t87.5 114
q-14 4 -28 7q-23 -61 -77 -98.5t-119.5 -37.5t-119.5 37.5t-78 98.5q-13 -3 -27 -7zM697.5 334q-19.5 0 -33.5 14t-14 33.5t14 33.5t33.5 14t33.5 -14t14 -33.5t-14 -33.5t-33.5 -14zM697.5 416q-14.5 0 -24.5 -10t-10 -24t10 -24.5t24.5 -10.5t24.5 10.5t10 24.5t-10 24
t-24.5 10zM329.5 334q-19.5 0 -33.5 14t-14 33.5t14 33.5t33.5 14t33.5 -14t14 -33.5t-14 -33.5t-33.5 -14zM329.5 416q-14.5 0 -24.5 -10t-10 -24t10 -24.5t24.5 -10.5t24.5 10.5t10 24.5t-10 24t-24.5 10z" />
    <glyph glyph-name="3" unicode="&#xe611;" 
d="M512 468q-70 0 -119 -49t-49 -119t49 -119t119 -49t119 49t49 119t-49 119t-119 49zM512 188q-46 0 -79 33t-33 79t33 79t79 33t79 -33t33 -79t-33 -79t-79 -33zM916 420q-25 5 -53 9q-5 14 -11 28q17 23 30 44q11 17 9 36.5t-16 33.5l-92 92q-16 16 -39 16q-17 0 -31 -9
q-21 -13 -44 -30q-14 6 -28 11q-4 29 -10 53q-4 19 -19 31.5t-35 12.5h-130q-20 0 -35 -12.5t-19 -31.5q-6 -24 -10 -53q-14 -5 -28 -11q-23 17 -44 30q-14 9 -31 9q-23 0 -39 -16l-92 -92q-14 -14 -16 -33.5t9 -36.5q13 -21 30 -44q-6 -14 -11 -28q-29 -4 -53 -10
q-19 -4 -31.5 -19t-12.5 -35v-130q0 -20 12.5 -35t31.5 -19q24 -6 53 -10q5 -14 11 -28q-17 -23 -30 -44q-11 -17 -9 -36.5t16 -33.5l92 -92q16 -16 39 -16q17 0 31 9q21 13 44 30q14 -6 28 -11q4 -29 10 -53q4 -19 19 -31.5t35 -12.5h130q20 0 35 12.5t19 31.5q6 24 10 53
q14 5 28 11q23 -16 44 -30q14 -9 31 -9q23 0 39 16l92 92q14 14 16 34t-9 36q-14 21 -30 44q6 14 11 28q28 4 53 9q19 5 31.5 20t12.5 35v130q0 20 -12.5 35t-31.5 20zM904 235q-38 -8 -84 -14q-11 -44 -34 -83q28 -37 49 -70l-91 -91q-33 21 -70 49q-39 -23 -83 -34
q-6 -47 -14 -84h-130q-8 37 -14 84q-44 11 -83 34q-38 -28 -70 -49l-91 91q21 32 49 70q-23 39 -34 83q-47 6 -84 14v130q37 8 84 14q11 44 34 83q-28 38 -49 70l91 91q32 -21 70 -49q39 23 83 34q6 47 14 84h130q8 -37 14 -84q44 -11 83 -34q38 28 70 49l91 -91
q-21 -32 -49 -70q23 -39 34 -83q46 -6 84 -14v-130z" />
    <glyph glyph-name="fuxuan01" unicode="&#xe623;" 
d="M845 749h-667q-47 0 -81 -33.5t-34 -81.5v-666q0 -48 34 -81.5t81 -33.5h667q47 0 80.5 33.5t33.5 81.5v666q0 48 -33.5 81.5t-80.5 33.5zM823 420l-354 -355q-7 -6 -16.5 -6t-15.5 6l-7 7h-1l-7 8l-34 34v0v0l-153 155q-7 7 -7 16t7 16l48 48q7 7 16 7t16 -7l138 -139
l290 290q6 7 15.5 7t16.5 -7l48 -48q7 -7 7 -16t-7 -16z" />
    <glyph glyph-name="wenjian" unicode="&#xe633;" 
d="M887 515v-45v-45v-478q0 -29 -20 -49t-48 -20h-614q-29 0 -48.5 20t-19.5 49v705q0 28 20 48t48 20h387h45h38q14 5 23 -5l183 -183q7 -7 6 -17zM660 447q-10 0 -16.5 7t-6.5 16v205h-45h-364q-19 0 -32.5 -13.5t-13.5 -32.5v-660q0 -18 13.5 -31.5t32.5 -13.5h568
q19 0 32.5 13.5t13.5 31.5v456v22h-182zM683 666v-173h159v14z" />
    <glyph glyph-name="guanggaoguanli" unicode="&#xe62f;" 
d="M143 281h526v-105h-526v105v0zM143 118h421v-105h-421v105v0zM945 139v-158q0 -17 -11.5 -28.5t-27.5 -11.5h-788q-16 0 -27.5 11.5t-11.5 28.5v158h-79v-158q0 -50 34.5 -84.5t83.5 -34.5h788q49 0 83.5 34.5t34.5 84.5v158h-79v0zM506 339h-57l-40 109h-165l-39 -109
h-56l151 399h55l151 -399v0zM393 493l-60 166q-3 8 -6 28h-2q-3 -19 -6 -28l-59 -166h133v0zM563 339v399h113q91 0 150.5 -52.5t59.5 -141.5q0 -93 -60 -149t-154 -56h-109v0zM614 692v-307h58q75 0 117.5 41.5t42.5 116t-43.5 112t-114.5 37.5h-60v0z" />
    <glyph glyph-name="zhanghu" unicode="&#xe63f;" 
d="M867 25q5 -16 8 -39q2 -25 2 -47q0 -24 -3.5 -45t-10.5 -33q-5 -7 -29 -15t-58 -15.5t-78 -14.5q-35 -5 -85 -11q-41 -6 -83 -9q-38 -3 -69 -3q-44 0 -106 7q-64 7 -118 16q-59 9 -102 18q-43 10 -52 17q-12 8 -17 50q-6 41 5 106q6 37 30 57q24 19 57 30q32 11 68 20
q35 10 62 27q21 13 33 25q11 12 16 24q4 12 4 25.5t-1 28.5q-2 24 -15 37q-15 14 -31 28q-9 7 -15 20q-5 11 -11 25q-5 17 -10 32q-7 2 -14 7q-6 5 -13.5 14t-11.5 26q-5 18 -3.5 31.5t5.5 23.5q4 11 12 21q-1 38 4 77q4 32 15 69q10 37 30 66q20 27 44 45q23 18 48 28
q24 10 49 14t48 4q29 0 56 -7t50 -18q24 -11 42 -25t29 -28q26 -32 38 -71q13 -40 18 -74q6 -41 5 -81q7 -4 11 -12q4 -7 7 -18q2 -12 0 -27q-3 -22 -9 -34q-7 -13 -15 -20q-10 -8 -19 -11q-4 -17 -9 -32q-7 -15 -12 -26q-6 -12 -14.5 -19.5t-17.5 -13.5q-8 -5 -14 -11
t-10 -15t-7 -21q-2 -14 -2 -31q2 -16 9 -31q7 -16 23 -30t43 -26q26 -9 55.5 -17t57.5 -18q28 -11 50 -27q22 -17 31 -43v0zM478 -141q5 0 16 7q11 6 20 15q11 10 18 18q8 10 8 15t-3 21q-7 32 -7 33q-6 25 -8 36q-5 19 -8 29q11 9 18 18q7 10 7 20q0 8 -6 16q-5 9 -12 15
q-6 5 -18 14h-50q-11 -7 -18 -14q-6 -6 -11 -14t-5 -16q0 -6 8 -17q8 -10 19 -19q-5 -13 -8 -26q-6 -17 -10 -36l-8 -36q-4 -16 -4 -24q0 -5 8 -14.5t18.5 -18.5t20.5 -15q10 -7 15 -7v0z" />
    <glyph glyph-name="jiantoushang" unicode="&#xe634;" 
d="M900 455l-336 335q-28 28 -66 19v0v0q-7 -2 -11 -3q-1 -1 -1.5 -1h-1.5q-15 -6 -25 -17l-335 -333q-20 -21 -20 -50t20.5 -49.5t49.5 -20.5t50 21l220 220v-715q0 -28 20 -48t48 -20t48 20t20 48v714l220 -219q21 -21 50 -21t49.5 21t20.5 50t-20 49z" />
    <glyph glyph-name="fangkuai" unicode="&#xe61a;" horiz-adv-x="1366" 
d="M614 383q0 -6 -4.5 -11t-11.5 -5h-375q-7 0 -11.5 5t-4.5 11v376q0 6 4.5 11t11.5 5h375q7 0 11.5 -5t4.5 -11v-376zM1159 383q0 -6 -4.5 -11t-11.5 -5h-375q-7 0 -11.5 5t-4.5 11v376q0 6 4.5 11t11.5 5h375q7 0 11.5 -5t4.5 -11v-376zM614 -162q0 -7 -4.5 -11.5
t-11.5 -4.5h-375q-7 0 -11.5 4.5t-4.5 11.5v375q0 7 4.5 11.5t11.5 4.5h375q7 0 11.5 -4.5t4.5 -11.5v-375zM1159 -162q0 -7 -4.5 -11.5t-11.5 -4.5h-375q-7 0 -11.5 4.5t-4.5 11.5v375q0 7 4.5 11.5t11.5 4.5h375q7 0 11.5 -4.5t4.5 -11.5v-375z" />
    <glyph glyph-name="iconfontxiangyou" unicode="&#xe658;" 
d="M376 493l252 -255l-252 -255v510z" />
    <glyph glyph-name="iconfontxiangzuo" unicode="&#xe659;" 
d="M648 -17l-262 255l262 255v-510z" />
    <glyph glyph-name="bianji" unicode="&#xe6a7;" 
d="M62 633v-733q5 -6 8 -13.5t7 -13.5q6 -5 14 -8t14 -8h667q6 5 12.5 8.5t11 7.5t10.5 12q5 8 7.5 36t2.5 52t-0.5 59t-0.5 39v256q-7 -3 -12 -7.5t-10.5 -11t-8.5 -9.5q-15 -14 -19.5 -18t-8 -16t-2.5 -19.5t2 -36.5t1 -58v-235v0l-18 -3q-23 0 -189 -1t-293 -1t-140 2
q-2 15 -2 153t1 316t1 199v34q0 4 1 4l2 2h373q23 0 61 46q3 3 6 4q1 0 2 3q0 1 1 3h-407q-50 0 -61 -4.5t-27 -29.5q-4 -6 -6 -10v0zM363 163q2 14 7.5 32t12.5 41t10 32q1 6 2.5 14t2 10.5t3 7t5.5 7.5l8 8l301 306q8 8 25.5 26t26.5 27t24 19.5t26 11.5t26 -3.5t29 -18.5
q13 -13 19.5 -24t5.5 -23t-3.5 -21t-13.5 -22.5t-18.5 -21.5t-24.5 -24.5t-25 -24.5l-270 -269q-9 -8 -19 -19.5t-13 -14.5t-10.5 -8t-15 -7.5t-21.5 -6.5q-66 -27 -100 -34v0zM954 618v34q-3 6 -7.5 20t-7.5 20q-11 18 -25.5 31.5t-24 19t-23.5 12t-18 8.5h-39
q-5 -2 -23 -9.5t-29 -15.5q-19 -14 -334 -334q-2 -2 -22 -21t-34 -34t-17 -22q-2 -9 -22 -78.5t-29 -94.5q-1 -1 -3 -8t-3 -10t-2.5 -9t-1.5 -9.5t0.5 -8t3 -8t6.5 -6.5q16 -16 109 25q86 19 112 37l261 257q6 6 18.5 20t18.5 20q17 15 59 56.5t53 54.5q7 13 14 30t10 23v0z
M757 -84h-637v705l-2 -2q-1 0 -1 -4v-34q0 -21 -1 -199t-1 -316t2 -153q13 -2 140 -2t293 1t189 1l18 3v0v0zM62 -143h43q-6 5 -14 8t-14 8q-4 6 -7 13.5t-8 13.5v-43z" />
    <glyph glyph-name="fanhui" unicode="&#xe64c;" 
d="M801 395q42 -25 82.5 -84t59.5 -131q22 -84 22 -190q-34 55 -48 75q-11 15 -28 34t-55.5 49.5t-80.5 49.5q-40 19 -100.5 27.5t-101.5 7.5h-41v-175l-419 297l419 297v-176q101 -8 154 -19q39 -8 73.5 -23.5t48.5 -27.5z" />
    <glyph glyph-name="tishi" unicode="&#xe61d;" 
d="M511.5 748q-91.5 0 -174 -35.5t-142.5 -95.5t-95.5 -143t-35.5 -174t35.5 -174t95.5 -143t142.5 -95.5t174 -35.5t174.5 35.5t142.5 95.5t95 143t35.5 174t-35.5 174t-95 143t-142.5 95.5t-174.5 35.5zM510 -19q-27 0 -45.5 19t-18.5 46t18.5 45.5t45.5 18.5t46 -18.5
t19 -45.5t-19 -46t-46 -19zM595 462v-1v0v0v0v-1v0q-55 -254 -55 -255v0q-6 -30 -30 -30q-22 0 -30 32q-2 9 -15.5 71t-25.5 119t-12 58v0v0v0v1v0v0v1h-1v0v1v0v0v1v0v0v1v0v0v1v0v0v1v0q-2 9 -2 17q0 36 25 61.5t61 25.5t61.5 -25.5t25.5 -61.5q0 -8 -2 -17z" />
    <glyph glyph-name="hongqi" unicode="&#xe629;" 
d="M315 -212h-63l2 1024l61 -42v-982zM766 454l-459 -320v642l459 -322v0zM772 482v0v0v0zM320 796z" />
    <glyph glyph-name="gantanhao" unicode="&#xe647;" 
d="M512 812q-104 0 -199 -40.5t-163.5 -109t-109 -163.5t-40.5 -199t40.5 -199t109 -163.5t163.5 -109t199 -40.5t199 40.5t163.5 109t109 163.5t40.5 199t-40.5 199t-109 163.5t-163.5 109t-199 40.5zM439 666h146v-512h-146v512zM565 -45q-21 -22 -49 -22q-34 0 -55.5 22
t-21.5 51q0 32 22 53t52 21t51.5 -22t21.5 -52q0 -29 -21 -51z" />
    <glyph glyph-name="fuxuankuang" unicode="&#xe624;" 
d="M818 640q13 0 23 -10t10 -24v-612q0 -14 -10 -23.5t-23 -9.5h-612q-14 0 -24 9.5t-10 23.5v612q0 14 10 24t24 10h612zM818 683h-612q-32 0 -54.5 -22.5t-22.5 -54.5v-612q0 -31 22.5 -53.5t54.5 -22.5h612q31 0 53.5 22.5t22.5 53.5v612q0 32 -22.5 54.5t-53.5 22.5v0z
" />
    <glyph glyph-name="zonglan" unicode="&#xe625;" 
d="M514 233l-374 316q-82 -98 -101.5 -218.5t24.5 -235t142 -196.5q98 -83 221.5 -104.5t241.5 21t201 140.5q140 167 102 370zM809 695l-3 2.5t-4 3.5q-98 83 -221.5 104.5t-242 -21t-200.5 -140.5l-1 -1l368 -309zM868 634l-323 -334l446 135q-26 121 -123 199z" />
    <glyph glyph-name="che" unicode="&#xe64d;" horiz-adv-x="1256" 
d="M493 802q138 19 269 0q18 -4 57.5 -12t69.5 -14.5t57 -13.5q69 -19 93 -89q39 -113 80 -219q4 -9 13.5 -19t15.5 -10q42 5 66 -14.5t39 -59.5q4 -16 0 -40q-16 -4 -72 -19q1 -8 3.5 -24.5t4 -29t1.5 -24.5q2 -227 0 -354q-1 -16 -8 -35.5t-13 -23.5q-6 -10 -98.5 -11
t-102.5 7q-21 13 -26 36t-2 43t-5 43h-607q-4 -15 -10 -47.5t-11.5 -52t-11.5 -22.5q-24 -9 -111.5 -9t-94.5 9q-9 6 -15 27t-8 41q-2 31 -1 150q1 37 4 279q-18 4 -67 17q-3 20 0 32q15 44 38.5 66t68.5 16q5 0 14 9t12 18q49 130 62 175q18 71 66.5 107.5t124.5 50.5
q6 2 105 17v0zM215 406q419 -87 822 0l-21.5 64.5t-24.5 74.5t-18 60q-22 81 -104 85q-229 10 -391 11q-44 1 -128 -19q-15 -4 -28.5 -13t-17.5 -20q-15 -37 -89 -243v0zM269 104v0q42 0 67 6q12 3 24 11.5t16 17.5q2 7 -6.5 21t-17.5 19q-82 38 -157 62q-53 18 -64 -31
q-19 -82 40 -95q14 -3 30 -4.5t37 -3.5t31 -3v0zM992 104q8 1 29 3t38 4.5t32 5.5q11 3 19 8.5t11.5 10.5t5 15t2 15t-0.5 18t-1 17q-1 22 -13.5 35t-31.5 7q-107 -33 -189 -73q-20 -10 -15 -31.5t29 -26.5q12 -2 24.5 -3.5t31.5 -2.5t29 -2v0zM992 104z" />
    <glyph glyph-name="htmal5icon18" unicode="&#xe61c;" 
d="M703 346h-153v-153h-76v153h-153v76h153v153h76v-153h153v-76zM512 767q-103 0 -191.5 -51.5t-140 -140t-51.5 -191.5t51.5 -191.5t140 -140t191.5 -51.5t191.5 51.5t140 140t51.5 191.5t-51.5 191.5t-140 140t-191.5 51.5z" />
    <glyph glyph-name="i" unicode="&#xe635;" 
d="M511 802q-113 0 -208.5 -55.5t-151 -151t-55.5 -208.5t55.5 -208.5t151 -151t208.5 -55.5q112 0 208 55.5t151.5 151t55.5 208.5q0 112 -55.5 208t-151.5 151.5t-208 55.5zM477 127q-50 -4 -53 39q-3 37 26 117l48 141q3 9 -0.5 14.5t-9.5 5.5q-13 -1 -30 -19.5
t-30.5 -36t-19.5 -18.5q-4 0 -7.5 3t-3.5 6q-1 13 43 61q54 56 120 61q32 2 49 -19t1 -74l-49 -155q-12 -34 -11 -45q0 -11 10 -10q14 1 43.5 36.5t33.5 35.5t7.5 -3t3.5 -8q1 -9 -14.5 -29.5t-39 -42.5t-56 -40t-61.5 -20zM591 531q-25 -2 -41 11.5t-18 37.5q-2 25 17 45
t46 22q25 2 42 -11.5t19 -37.5q1 -26 -17.5 -45.5t-47.5 -21.5z" />
    <glyph glyph-name="jia" unicode="&#xe60b;" 
d="M832 320h-256v-256q0 -26 -19 -45t-45 -19q-27 0 -45.5 18.5t-18.5 45.5v256h-256q-27 0 -45.5 18.5t-18.5 45.5t18.5 45.5t45.5 18.5h256v256q0 27 18.5 45.5t45.5 18.5q26 0 45 -19t19 -45v-256h256q26 0 45 -19t19 -45t-19 -45t-45 -19z" />
    <glyph glyph-name="xiangshang" unicode="&#xe63c;" 
d="M822.5 217.5q9.5 9.5 9.5 23t-9 22.5l-287 288q-9 9 -24 9q-15 1 -24 -9l-287 -288q-9 -9 -9 -22.5t9.5 -23t23 -9.5t22.5 10l265 266l265 -266q9 -10 22.5 -10t23 9.5z" />
    <glyph glyph-name="xiangxia" unicode="&#xe615;" 
d="M777 550l-265 -266l-265 266q-9 10 -22.5 10t-23 -9.5t-9.5 -23t9 -22.5l287 -288q9 -9 24 -9q15 -1 24 9l287 288q9 9 9 22.5t-9.5 23t-23 9.5t-22.5 -10z" />
    <glyph glyph-name="guanggao" unicode="&#xe64e;" 
d="M210 241l-90 222q-12 31 1 63q12 31 41 45l476 229q28 14 57 2t41 -42l91 -235l-48 -23l-91 235q-3 8 -12 10.5t-18 -1.5l-476 -229q-9 -5 -13 -15q-4 -8 -1 -16l90 -221zM831 -51h-545q-32 0 -55.5 25.5t-23.5 62.5v409q0 36 23.5 62t55.5 26h545q32 0 55 -26t23 -62
v-409q0 -37 -23 -62.5t-55 -25.5zM286 475q-11 0 -18.5 -8.5t-7.5 -20.5v-409q0 -13 7.5 -21.5t18.5 -8.5h545q10 0 18 9t8 21v409q0 12 -8 20.5t-18 8.5h-545v0zM412 202q-12 0 -17 12q-4 8 -1.5 17t10.5 13l225 127q7 4 15 1t11.5 -11t1 -16.5t-9.5 -12.5l-226 -128
q-4 -2 -9 -2zM495 86q-11 0 -17 11q-4 8 -2 17t10 13l230 146q7 4 15 2t12 -10t2 -17t-9 -13l-231 -146q-4 -3 -10 -3z" />
    <glyph glyph-name="xiangzuo" unicode="&#xe62e;" 
d="M626 689l43 -44l-262 -262l262 -263l-43 -44l-307 307z" />
    <glyph glyph-name="xiangyou" unicode="&#xe61f;" 
d="M380 79l-44 44l263 262l-263 263l44 44l306 -307z" />
    <glyph glyph-name="meiticaifangyuhezuo" unicode="&#xe8df;" 
d="M896 768h-768q-35 0 -60 -25t-25 -60v-128h85v128h768v-598h-299v-85h299q35 0 60 25t25 60v598q0 35 -25 60t-60 25zM43 128v-128h128q0 53 -38 90.5t-90 37.5zM43 299v-86q88 0 150.5 -62.5t62.5 -150.5h85q0 123 -87.5 211t-210.5 88zM43 469v-85q104 0 192.5 -51.5
t140 -140t51.5 -192.5h85q0 95 -37.5 182t-100.5 150t-149.5 100t-181.5 37z" />
    <glyph glyph-name="icon-copy-copy" unicode="&#xe656;" 
d="M512 318l-132 132h264z" />
    <glyph glyph-name="paiqi" unicode="&#xe654;" 
d="M742.5 -128q-111.5 0 -190 79t-78.5 190t78.5 189.5t190 78.5t190 -78.5t78.5 -189.5t-78.5 -190t-190 -79zM742.5 358q-90.5 0 -154 -63.5t-63.5 -153.5t63.5 -154t154 -64t154 64t63.5 154t-63.5 153.5t-154 63.5zM852 52l-133 52v0l-2 2t-2 1q-3 2 -4 3q-4 4 -6 11
q-1 4 -1 6v130q0 10 7 17.5t18 7.5h2q10 0 17 -7.5t7 -17.5v-113l113 -44q9 -4 13 -13.5t0.5 -19t-12 -14t-17.5 -1.5zM781 717q0 21 -15 36t-36 15h-52v51h52q42 0 72 -30t30 -72v-269q-25 7 -51 10v259zM628 691h-2q-10 0 -17 7.5t-7 17.5v155q0 11 7 18t17 7h2
q10 0 17.5 -7t7.5 -18v-155q0 -10 -7.5 -17.5t-17.5 -7.5zM269 819h307v-51h-307v51zM219 691h-2q-11 0 -18 7.5t-7 17.5v155q0 11 7 18t18 7h2q10 0 17 -7t7 -18v-155q0 -10 -7 -17.5t-17 -7.5zM218 539v-3q0 -10 -7.5 -17t-17.5 -7h-2q-10 0 -17.5 7t-7.5 17v3
q0 10 7.5 17t17.5 7h2q10 0 17.5 -7t7.5 -17zM193 358h-2q-10 0 -17.5 7.5t-7.5 17.5v2q0 10 7.5 17.5t17.5 7.5h2q10 0 17.5 -7.5t7.5 -17.5v-2q0 -10 -7.5 -17.5t-17.5 -7.5zM218 229q0 -10 -7.5 -17t-17.5 -7h-2q-10 0 -17.5 7t-7.5 17v3q0 10 7.5 17t17.5 7h2
q10 0 17.5 -7t7.5 -17v-3zM293 256h151q-10 -27 -15 -51h-136q-10 0 -17 7t-7 17v2q0 11 7 18t17 7zM269 536v3q0 10 7 17t17 7h387q10 0 17 -7t7 -17v-3q0 -10 -7 -17t-17 -7h-387q-10 0 -17 7t-7 17zM293 358q-10 0 -17 7.5t-7 17.5v2q0 10 7 17.5t17 7.5h276
q-33 -22 -61 -52h-215zM64 717v-666q0 -21 15 -36t36 -15h340q14 -27 32 -51h-372q-42 0 -72 30t-30 72v666q0 42 30 72t72 30h51v-51h-51q-21 0 -36 -15t-15 -36z" />
    <glyph glyph-name="Question" unicode="&#xe63a;" 
d="M511 827q-90 0 -172 -35t-141 -94t-94 -141t-35 -172t35 -172t94 -141t141 -94t172 -35t172 35t141 94t94 141t35 172t-35 172t-94 141t-141 94t-172 35v0v0zM508 76q-27 0 -46 18.5t-19 45t19 45t46 18.5t46 -18.5t19 -45t-19 -45t-46 -18.5v0v0zM683 437
q-19 -30 -81 -82q-33 -27 -40.5 -43.5t-7.5 -58.5h-92q0 6 -0.5 11.5t-0.5 9v4.5q0 45 15 74t60 65q45 37 53 48q14 18 14 39q0 30 -24 51.5t-64 21.5q-39 0 -66 -23q-12 -10 -22.5 -30.5t-13.5 -36.5q-1 -10 -25 -14.5t-46.5 2t-22.5 23.5q2 64 56 111q51 45 135 45
q88 0 140 -45.5t52 -107.5q0 -33 -19 -64v0v0zM683 437z" />
    <glyph glyph-name="transfer" unicode="&#xe63d;" 
d="M29 56q3 -9 31.5 -19.5t81.5 -19t113 -9.5q74 -1 140.5 11t87.5 34q4 12 -15 21q-54 23 -133 47q-4 1 -4 15t10 34q10 22 13 46q13 15 20 48q5 25 -1 40q0 1 -1 2q-3 15 5 57q2 14 -3 35t-19 40q-29 37 -85 40h-26q-55 -3 -84 -40q-14 -19 -19 -40t-3 -35q8 -42 5 -56
q0 -1 -1 -3q-6 -15 -1 -40q7 -33 20 -48q3 -24 14 -46q5 -12 5 -34q0 -15 -4 -16q-78 -23 -133 -47v0q-18 -5 -14 -17zM541 56q3 -9 31.5 -19.5t81.5 -19t113 -9.5q74 -1 140.5 11t87.5 34q4 12 -15 21q-54 23 -133 47q-4 1 -4 15t10 34q10 22 13 46q13 15 20 48q5 25 -1 40
q0 1 -1 2q-3 15 5 57q2 14 -3 35t-19 40q-29 37 -85 40h-26q-55 -3 -84 -40q-14 -19 -19 -40t-3 -35q8 -42 5 -56q0 -1 -1 -3q-6 -15 -1 -40q7 -33 20 -48q3 -24 14 -46q5 -12 5 -34q0 -15 -4 -16q-78 -23 -133 -47q-7 0 -13 -8q-3 -4 -1 -9zM758 640q3 -9 -1.5 -17.5
t-13.5 -11.5l-176 -58q-8 -3 -17 1t-12 13t1.5 17.5t13.5 11.5l123 41l-27 14q-71 42 -139.5 57.5t-122 7t-94 -29t-65.5 -50.5q9 16 42 50q15 15 35.5 28t58 25t80 14t102.5 -12.5t123 -48.5l28 -13l-41 123q-3 9 1 17.5t13 11.5t17.5 -1.5t11.5 -13.5z" />
    <glyph glyph-name="down" unicode="&#xe616;" 
d="M879 595l-379 -456l-379 456h758z" />
    <glyph glyph-name="16pxduigou" unicode="&#xe641;" 
d="M512 896q-138 0 -256 -69t-187 -187t-69 -256t69 -256t187 -187t256 -69t256 69t187 187t69 256t-69 256t-187 187t-256 69zM845 531l-429 -429l-237 237q-19 19 -19 45t19 45t45 19t45 -19l147 -147l339 339q19 19 45 19t45 -19t19 -45t-19 -45z" />
    <glyph glyph-name="qiyeguanlizhe" unicode="&#xe661;" 
d="M650 209q-1 0 -3 0.5t-7.5 3t-10 5.5t-9 9t-6.5 13t-1 17t7 22q23 31 38.5 64.5t17.5 48.5q6 4 14.5 12.5t23.5 35.5t16.5 54t-1.5 43t-6 18l-4 3q7 21 10.5 57.5t-1 80t-18.5 80t-45.5 56.5t-77.5 12q-10 20 -43 34t-73.5 15.5t-85 -22.5t-71.5 -73q-31 -54 -38 -118
t15 -124q-1 -2 -2.5 -2.5t-4 -1.5t-4.5 -7.5t-4 -18.5q-2 -25 7 -57t23 -50q9 -13 27 -21q1 -7 4 -18.5t18 -43t36 -57.5q5 -21 -3.5 -38.5t-19.5 -24.5l-11 -7q-119 -23 -205.5 -81t-86.5 -123v-71q0 -31 106 -46t267 -14q1 24 4.5 47t8 41t10 33.5t10.5 26.5t9 18.5
t6.5 11.5l2.5 4l-53 29q0 12 16.5 25.5t33.5 21.5l17 8q7 -3 17.5 -8.5t28 -20t17.5 -26.5l-50 -29q5 -9 12.5 -24.5t21.5 -63.5t16 -96q153 4 263.5 22.5t110.5 39.5v71q0 66 -85.5 123.5t-204.5 80.5z" />
    <glyph glyph-name="che1" unicode="&#xe62c;" 
d="M483 667v16l-18 2v17h-18v35h-316v-35h-18v-19h-16v-16h-71v-36h35v-17h-17v-35h-18v-210h105l1 70h52v52h18v17h105v18h17v35l18 1v17h17l1 17l157 1l1 35h35v34l-70 1v0zM168 561h-18l-1 -17h-52l-2 16l-17 1v35h17v17h54v-17h19v-35v0zM466 632h-352v17h17v35h18v18
h282v-18h17v-35h18v-17v0zM466 632zM974 422l1 16h17v36h-104l-2 34h-17v18h-18v18h-17v35h-456v-35h-18v-19h-18v-17h-17v-34l-105 -1v-34l17 -1v-17h36v-18h-18v-17h-18v-36h-17v-316h174l1 124l421 -1v-123h176v316h-17v36h-18v17h-18v19h35v0zM342 456h18v18h16v34h18
v19h17v17h388v-18l18 -1v-33l17 -1v-17h18v-18h18v-35h-528v35v0zM431 315h-36l1 -18h-72v18h-16l-2 18l-16 1v35h17l1 17h105v-17h18v-54v0zM921 333h-16v-18h-18v-17h-71v17h-34v54h17v17h105v-17h17v-36v0zM921 333z" />
    <glyph glyph-name="fenxi" unicode="&#xe64f;" horiz-adv-x="1030" 
d="M96 171q38 0 65.5 28t27.5 69q0 10 -3 24l212 220q13 -3 23.5 -3t23.5 3l120 -123q-4 -17 -4 -25q0 -40 28 -69t66.5 -29t66 29t27.5 69q0 8 -3 25l165 172q14 -3 24 -3q39 0 66.5 29t27.5 68.5t-27.5 68.5t-66.5 29q-38 0 -66 -28.5t-28 -69.5q0 -10 4 -24l-166 -172
q-13 4 -23.5 4t-24.5 -4l-119 123q3 17 3 26q0 39 -27.5 68t-65.5 29q-39 0 -66.5 -28.5t-27.5 -68.5q0 -9 3 -26l-213 -222q-14 4 -24 4q-39 0 -66.5 -28.5t-27.5 -69.5q1 -38 29 -66.5t67 -28.5zM2 17h1024v85h-1024v-85z" />
    <glyph glyph-name="hailiangxiansuo" unicode="&#xe630;" horiz-adv-x="1077" 
d="M980 396q-50 0 -77 -43l-232 59v14q0 61 -43 105l36 62l100 -31q3 -14 13.5 -23.5t24.5 -11.5q19 -2 34.5 9t18.5 30t-8.5 34t-30.5 18q-21 3 -38 -11l-89 28l50 86q1 0 4 -1t4 -1q37 -6 67 16.5t35.5 59t-17 66t-59.5 34.5t-67 -17t-35 -58q-6 -45 26 -77l-108 -185
q-32 16 -67 16q-51 0 -91 -31l-29 32l41 109q14 2 24 12t13 24q3 18 -7.5 34t-29.5 19.5t-35 -7t-19 -29.5q-4 -21 9 -37l-31 -85l-88 99q12 19 14 40q3 36 -21 64.5t-61.5 31.5t-66 -21t-31.5 -60.5t21 -65t61 -31.5q26 -2 49 10l45 -50l-146 -30q-7 8 -17 12
q-18 6 -35.5 -2t-24 -25.5t1.5 -35t26 -24t35 1.5t24 26v0.5v0.5l172 35l73 -82q-26 -38 -26 -83q0 -20 6 -39l-211 -100q-22 35 -63 42q-37 5 -67 -16.5t-36 -58t16 -66.5t59 -35.5t67 16t36 58.5q1 5 1 14l218 103q36 -53 100 -63l3 -50l-109 -43q-8 6 -17 8
q-19 4 -35.5 -6t-20.5 -28.5t6 -34.5t29 -20.5t35 5.5t20 29l0.5 1.5l0.5 1.5l94 38l9 -124q-43 -18 -53 -62q-9 -36 11 -67.5t56.5 -39.5t68 11.5t40 55.5t-11.5 67.5t-56 39.5h-2.5t-3 0.5t-2.5 0.5l-15 216q38 6 68 29t46 58l46 -12l8 -105q-20 -14 -20 -38
q0 -19 13.5 -32.5t32.5 -13.5t33 13.5t14 32.5q0 28 -26 40l-6 91l136 -35l-0.5 -0.5l-0.5 -0.5q0 -37 26.5 -63.5t64 -26.5t64 26.5t26.5 63t-26.5 63t-63.5 26.5v0z" />
    <glyph glyph-name="jiantoushang-copy" unicode="&#xe636;" 
d="M124 229l336 -335q28 -28 66 -19v0v0q7 2 11 3q1 1 1.5 1h1.5q15 6 25 17l335 333q20 21 20 50t-20.5 49.5t-49.5 20.5t-50 -21l-220 -220v715q0 28 -20 48t-48 20t-48 -20t-20 -48v-714l-220 219q-21 21 -50 21t-49.5 -21t-20.5 -50t20 -49z" />
    <glyph glyph-name="tishi1" unicode="&#xe626;" 
d="M214 696q-9 9 -22 9t-22.5 -9t-9.5 -21.5t9 -20.5l45 -43q9 -9 22 -9t22 9t9 21.5t-9 21.5l-44 42v0v0zM810 696l-44 -42q-9 -9 -9 -21.5t9 -21.5t22 -9t22 9l45 43q9 8 9 20.5t-9.5 21.5t-22.5 9t-22 -9v0v0zM135 459h-62q-13 0 -22.5 -9t-9.5 -21t9.5 -21t22.5 -9h62
q13 0 22.5 9t9.5 21t-9.5 21t-22.5 9v0v0zM951 459h-62q-13 0 -22.5 -9t-9.5 -21t9.5 -21t22.5 -9h62q13 0 22.5 9t9.5 21t-9.5 21t-22.5 9v0v0zM481 803v-60q0 -12 9 -21t22 -9t22 9t9 21v60q0 13 -9 21.5t-22 8.5t-22 -8.5t-9 -21.5v0v0zM230 384q0 -112 82.5 -191
t199.5 -79t199.5 79t82.5 191t-82.5 191t-199.5 79t-199.5 -79t-82.5 -191v0v0zM449 -35q0 -13 9.5 -21.5t22.5 -8.5h62q13 0 22.5 8.5t9.5 21t-9.5 21.5t-22.5 9h-62q-13 0 -22.5 -9t-9.5 -21v0v0zM386 55q0 -13 9.5 -21.5t22.5 -8.5h188q13 0 22.5 8.5t9.5 21t-9.5 21
t-22.5 8.5h-188q-13 0 -22.5 -8.5t-9.5 -20.5v0v0zM386 55z" />
    <glyph glyph-name="pdf" unicode="&#xe650;" 
d="M975 596l-234 251h-590v-374h51v322h488v-250h233v-574h-282v0h-490v-51h824v676v0v0zM975 596zM429 300q-11 5 -37 5h-45v-165h46q21 0 33 4t20 11q10 10 15.5 27t5.5 42q0 34 -11 52t-27 24v0zM429 300zM751 417h-702v-389h702v389v0zM264 221q-17 -19 -63 -19h-55v-88
h-29v216h82q21 0 32 -2q16 -3 27 -10.5t17.5 -20.5t6.5 -29q0 -28 -18 -47v0zM491 180q-6 -19 -15 -31.5t-19.5 -19.5t-25.5 -11t-35 -4h-78v216h75q25 0 38 -3q19 -4 32 -15q17 -15 25.5 -37.5t8.5 -51.5q0 -24 -6 -43v0zM683 305v0h-117v-67h101v-26h-101v-98h-29v216h146
v-25v0zM683 305zM228 303q-8 2 -27 2h-55v-78h56q27 0 39 10.5t12 29.5q0 13 -7 23t-18 13v0zM228 303z" />
    <glyph glyph-name="baogao" unicode="&#xe727;" 
d="M845 834h-671q-28 0 -50 -12t-33 -29.5t-17.5 -34.5t-8.5 -29l-1 -12v-679q0 -11 3.5 -22t10 -19.5t14.5 -16.5t17.5 -14t18.5 -11.5t17.5 -9t15 -6t10 -4l3.5 -1.5h498l288 285v507q0 24 -11.5 44t-28.5 31.5t-34 19.5t-29 10l-12 3v0zM890 247q0 -16 -9 -25.5
t-19 -10.5l-9 -2h-128q-18 0 -28.5 -7.5t-11.5 -15.5l-1 -8v-127q0 -12 -2.5 -21.5t-5.5 -14t-6.5 -7t-5.5 -3l-2 -0.5v0h-472q-22 0 -36.5 11t-17.5 21l-2 11v652q0 25 14 42t28 22l14 4q583 -3 637 -3q23 0 39 -16t20 -32l5 -16v-454h-1zM890 247zM756 523
q0 -15 -10.5 -25t-24.5 -10h-422q-14 0 -24 10t-10 25v0q0 14 10 24.5t24 10.5h422q14 0 24.5 -10.5t10.5 -24.5v0v0zM756 523zM681 345q0 -13 -10 -23t-24 -10h-349q-14 0 -23.5 10t-9.5 23v0q0 15 9.5 24.5t23.5 9.5h349q15 0 24.5 -9.5t9.5 -24.5v0v0zM681 345z" />
    <glyph glyph-name="qi" unicode="&#xe608;" 
d="M387 -28q-13 0 -20 11l-1 2q-2 3 -3 6l-29 104l-162 574q0 2 -1 4l-19 68q-1 4 -1 8v0q1 9 7 15t14.5 7t15.5 -4t10 -13l11 -39q44 25 95.5 40.5t89.5 15.5q42 0 89 -12q33 -9 83 -28q46 -17 92 -17q30 0 59 7.5t48.5 17t37 21.5t23 17t8.5 8q12 12 27 5t14 -23l-23 -335
q-1 -8 -6 -14q-4 -5 -11.5 -12t-29 -22.5t-45.5 -27.5t-61.5 -21.5t-75.5 -9.5q-23 0 -46 4q-21 3 -40 3q-63 0 -115 -27q-56 -29 -75 -78l33 -120l29 -105q3 -8 -1 -16t-12 -12q-4 -2 -9 -2z" />
    <glyph glyph-name="remove" unicode="&#xe628;" 
d="M165 453h694v-138h-694v138z" />
    <glyph glyph-name="jiangbeikuai" unicode="&#xe644;" horiz-adv-x="1026" 
d="M833 736q0 53 -37.5 90.5t-90.5 37.5h-384q-53 0 -90.5 -37.5t-37.5 -90.5q-146 0 -170 -11.5t-23 -78.5q1 -24 1 -38q0 -79 56.5 -135.5t135.5 -56.5q4 0 11 1t11 1q34 -99 106 -171.5t160 -84.5v-194h-96q-13 0 -22.5 -9.5t-9.5 -22.5t9.5 -22.5t22.5 -9.5h256
q13 0 22.5 9.5t9.5 22.5t-9.5 22.5t-22.5 9.5h-96v194q88 12 160 84.5t106 171.5q3 0 10.5 -1t11.5 -1q79 0 135.5 56.5t56.5 135.5v38q1 68 -23 79t-169 11zM193 480q-53 0 -90.5 37.5t-37.5 90.5v27.5t4.5 17.5t8 11.5t18 5t26.5 2.5h42h29v-192zM833 480v192h29h42
t26.5 -2.5t18 -5t8 -11.5t4.5 -17.5v-27.5q-1 -53 -38 -90.5t-90 -37.5z" />
    <glyph glyph-name="wenjian1" unicode="&#xe602;" 
d="M124 606q-1 11 7 18l189 189q10 10 24 5h39h47h400q30 0 50.5 -20.5t20.5 -49.5v-730q0 -29 -20.5 -49.5t-50.5 -20.5h-635q-29 0 -50 20.5t-21 49.5v494v48v46v0zM360 536h-189v-24v-470q0 -20 14 -33.5t33 -13.5h589q19 0 33 13.5t14 33.5v682q0 20 -14 33.5t-33 13.5
h-377h-47v-211q0 -10 -7 -17t-16 -7v0zM336 762l-165 -164v-15h165v179v0zM336 762z" />
    <glyph glyph-name="yanjing" unicode="&#xe646;" 
d="M512 687q-149 0 -270 -84t-174 -219q53 -135 174 -219t270 -84t270 84t174 219q-53 135 -174 219t-270 84zM512 182q-84 0 -143 59t-59 143t59 143t143 59t143 -59t59 -143t-59 -143t-143 -59zM512 505q-50 0 -85.5 -35.5t-35.5 -85.5t35.5 -85.5t85.5 -35.5t85.5 35.5
t35.5 85.5t-35.5 85.5t-85.5 35.5z" />
    <glyph glyph-name="baocun" unicode="&#xe610;" 
d="M644 322h-262v-32h262v32zM644 224h-262v-33h262v33zM706 715h-488v-655h590v489zM709 126h-392v262h392v-262zM709 486h-392v164h196v-98h131v98h65v-164z" />
    <glyph glyph-name="icon-question" unicode="&#xe63b;" 
d="M511 832q-91 0 -174 -35t-143 -95t-95.5 -143t-35.5 -174.5t35.5 -174t95.5 -142.5t143 -95.5t174 -35.5t174 35.5t143 95.5t95.5 142.5t35.5 174t-35.5 174.5t-95.5 143t-143 95t-174 35zM511.5 1q-104.5 0 -193 51.5t-139.5 139.5t-51 192.5t51 192.5t139.5 139.5
t193 51.5t192.5 -51.5t139.5 -139.5t51.5 -192.5t-51.5 -192.5t-139.5 -139.5t-192.5 -51.5zM502 625q-56 -1 -99 -33t-59 -102l80 -10q1 3 2.5 9t8.5 20t17 24.5t29 18t44 4.5q30 -3 46.5 -15.5t18.5 -27t-0.5 -26.5t-6.5 -18q-4 -10 -49.5 -49t-52.5 -56q-5 -14 -8 -36.5
t-3 -37.5v-16h77q0 7 0.5 18t10 34.5t28.5 35.5q18 11 36 28t34.5 41.5t20.5 50.5t-6 54q-36 57 -74 74t-95 15zM468 245h82v-88h-82v88z" />
    <glyph glyph-name="sanjiao-copy" unicode="&#xe617;" 
d="M145 173l379 456l379 -456h-758z" />
    <glyph glyph-name="kehu" unicode="&#xe62a;" 
d="M580 339q-33 28 -56.5 41.5t-29.5 12.5l-6 -1q-51 -28 -106 -28q-59 0 -113 32q-101 -47 -169.5 -167t-79.5 -275l725 -2q-8 117 -57 227t-108 160zM382 1l-53 56l48 254l-27 38q6 7 32.5 7t32.5 -7l-27 -38l48 -254zM270 410q53 -32 113 -32q54 0 105 28q52 28 83 79
t31 112q0 91 -64.5 155t-155 64t-155 -64t-64.5 -155q0 -58 29 -108t78 -79zM892 214q-22 19 -38 28t-20 8h-4q-35 -19 -72 -19q-40 0 -76 22q-69 -33 -115 -114t-54 -186l491 -1q-6 79 -39 153.5t-73 108.5zM758 -15l-36 38l33 172l-19 25q4 5 22 5.5t22 -5.5l-18 -25
l33 -172zM682 262q36 -22 76 -22q37 0 72 19t56 53.5t21 76.5q0 61 -43.5 104.5t-105 43.5t-105 -43.5t-43.5 -104.5q0 -40 19.5 -73.5t52.5 -53.5z" />
    <glyph glyph-name="dayin" unicode="&#xe60f;" 
d="M915 675h-110v89q0 33 -16.5 57.5t-44.5 24.5h-441q-30 0 -57.5 -26t-27.5 -56v-89h-86q-30 0 -57.5 -26t-27.5 -56v-269q0 -29 26 -46.5t59 -17.5h86v-275q0 -28 26 -45.5t59 -17.5h441q61 0 61 63v275h110q30 0 46 16.5t16 47.5v269q0 32 -16.5 57t-45.5 25v0zM267 764
q0 10 13 22t23 12h441q12 0 12 -31v-3v-89h-489v89v0zM756 -5q0 -10 -7 -17.5t-17 -7.5h-441q-10 0 -17 7.5t-7 17.5v362q0 11 7 18t17 7h441q10 0 17 -7t7 -18v-362v0zM927 324v-4q0 -8 -1.5 -9.5t-10.5 -1.5h-110v39q0 33 -16.5 58t-44.5 25h-441q-30 0 -57.5 -26.5
t-27.5 -56.5v-39h-86q-36 0 -36 15v269q0 10 13 21.5t23 11.5h783q2 0 4 -0.5t3 -2l2 -3t1.5 -4t1 -4t0.5 -5v-5v-5v-4.5v-269v0zM685 274h-342q-10 0 -17.5 -7t-7.5 -17t7.5 -17t17.5 -7h342q10 0 17.5 6.5t7.5 17t-7.5 17.5t-17.5 7v0zM685 132h-342q-10 0 -17.5 -7
t-7.5 -17t7.5 -17.5t17.5 -7.5h342q10 0 17.5 7.5t7.5 17.5t-7.5 17t-17.5 7v0zM834 566zM798 565.5q0 14.5 10.5 25.5t25 11t25.5 -11t11 -25.5t-11 -25t-25.5 -10.5t-25 10.5t-10.5 25z" />
    <glyph glyph-name="renminbi" unicode="&#xe66b;" 
d="M851 838l-243 -407h211v-73h-258v-115h260v-72h-260v-241h-96v241h-258v72h258v115h-258v73h211l-245 407h106l235 -401l233 401h104z" />
    <glyph glyph-name="yonghumingtouxiang01" unicode="&#xe618;" 
d="M546 302h-2q-8 1 -17 1.5t-16.5 0t-13.5 -0.5t-10 -0.5l-4 -0.5q-71 -8 -126 -54t-76 -113h462q-21 66 -74 111.5t-123 55.5zM511 350q59 0 100.5 41t41.5 100t-41.5 100.5t-100.5 41.5t-100.5 -41.5t-41.5 -100.5t41.5 -100t100.5 -41zM512 896q-139 0 -257 -68.5
t-186.5 -186.5t-68.5 -257t68.5 -257t186.5 -186.5t257 -68.5t257 68.5t186.5 186.5t68.5 257t-68.5 257t-186.5 186.5t-257 68.5zM217 89q8 84 58.5 150.5t128.5 97.5q-37 26 -59 66.5t-22 87.5q0 78 55 133t133 55q79 0 134.5 -55.5t55.5 -133.5q0 -47 -22 -88t-59 -66
q77 -30 128 -96.5t59 -150.5h-590z" />
    <glyph glyph-name="jine" unicode="&#xe648;" 
d="M799 411q0 4 -1 12t-2 12q-8 35 -15 54q-27 67 -78 113.5t-124 65.5q-34 9 -77 8h-10q-15 -2 -22 -2q-43 -9 -58 -14q-90 -35 -138 -103q-9 -13 -23 -36q-6 -10 -18 -42q-5 -13 -13 -54q-1 -6 -2 -21q-3 -16 -1 -29q1 -4 1.5 -13t0.5 -13q7 -37 10 -48q41 -131 163 -184
q23 -11 57 -19q5 -1 15 -2.5t14 -1.5q10 -2 29 -2h11q4 0 12.5 0.5t12.5 1.5q40 7 50 10q132 42 186 170q21 49 21 101q-1 35 -1 36zM606 416q14 0 23.5 -9.5t9.5 -22.5t-9.5 -22.5t-23.5 -9.5h-65v-33h65q14 0 23.5 -9.5t9.5 -23t-9.5 -23t-23.5 -9.5h-65v-32
q0 -14 -9.5 -23.5t-22.5 -9.5t-22.5 9.5t-9.5 23.5v32h-65q-14 0 -23.5 9.5t-9.5 23t9.5 23t23.5 9.5h65v33h-65q-14 0 -23.5 9.5t-9.5 22.5t9.5 22.5t23.5 9.5h65l-98 130h65l65 -86l65 86h65l-98 -130h65z" />
    <glyph glyph-name="pichuli" unicode="&#xe605;" 
d="M256 525v-452q0 -15 8.5 -24.5t21.5 -9.5h507q12 0 20.5 9.5t8.5 24.5v452q0 14 -8.5 23.5t-20.5 9.5h-507q-12 0 -21 -10t-9 -23v0zM315 491v0h448v-384h-448v384v0zM92 248v0q13 0 21.5 8.5t8.5 20.5v430h477q13 0 21.5 8.5t8.5 21t-8.5 21t-21.5 8.5h-505v0
q-12 0 -20.5 -8.5t-8.5 -21.5v-459q-2 -11 6.5 -20t20.5 -9v0zM189 669v0q-13 0 -21 -8.5t-8 -21.5v-459q0 -12 8 -20.5t21 -8.5t21 8.5t8 20.5v430h478q13 0 21.5 8.5t8.5 21t-8.5 21t-21.5 8.5h-507v0v0zM423 424l-61 -53q17 -17 45.5 -46t94 -106.5t104.5 -140.5
q2 10 7.5 28.5t31 77.5t60.5 120.5t102.5 152t151.5 176.5l-13 36q-7 -4 -20 -12t-54 -40t-83 -72t-103 -110.5t-118 -152.5q-1 0 -17 17t-52.5 53t-75.5 72z" />
    <glyph glyph-name="rili" unicode="&#xe603;" 
d="M573 354h-101v-81h101v81zM613 697h-202v-61h202v61zM734 354h-101v-81h101v81zM673.5 576q16.5 0 28.5 12t12 28v101q0 17 -12 29t-28.5 12t-28.5 -12t-12 -29v-101q0 -16 12 -28t28.5 -12zM734 475h-101v-81h101v81zM472 152h101v81h-101v-81zM573 475h-101v-81h101v81
zM290 152h101v81h-101v-81zM815 697h-81v-61h61q17 0 28.5 -11.5t11.5 -28.5v-505q0 -17 -11.5 -28.5t-28.5 -11.5h-566q-17 0 -28.5 11.5t-11.5 28.5v505q0 17 11.5 28.5t28.5 11.5h61v61h-81q-33 0 -57 -23.5t-24 -57.5v-545q0 -34 24 -57.5t57 -23.5h606q33 0 57 23.5
t24 57.5v545q0 34 -24 57.5t-57 23.5zM391 475h-101v-81h101v81zM350.5 576q16.5 0 28.5 12t12 28v101q0 17 -12 29t-28.5 12t-28.5 -12t-12 -29v-101q0 -16 12 -28t28.5 -12zM391 354h-101v-81h101v81zM734 233h-101v-81h101v81z" />
    <glyph glyph-name="gaikuang" unicode="&#xe613;" 
d="M958 137v696h-895v-696h398v-99h-298v-100h695v100h-298v99h398zM163 237v496h695v-496h-695zM672 569l-50 -91l-260 157l-100 -181l87 -52l50 90l173 -104v0l86 -52l50 90v0l50 90z" />
    <glyph glyph-name="renwu" unicode="&#xe604;" horiz-adv-x="1076" 
d="M854 830h-639q-57 0 -98 -41.5t-41 -98.5v-608q0 -57 41 -98t98 -41h639q57 0 98.5 41t41.5 98v608q0 58 -40 99t-100 41zM926 78q0 -30 -21 -51t-51 -21h-639q-30 0 -51 21t-21 51v612q0 30 21 51t51 21h639q30 0 51 -21t21 -51v-612zM413 609l-99 -99l-45 45
q-10 10 -24 10t-21 -10q-10 -10 -10 -24t10 -21l72 -72q9 -9 27 -9q6 0 9.5 1t8 3.5t9.5 4.5l122 122q10 10 10 24t-10 20q-38 19 -59 5zM827 555h-311q-31 0 -31 -31.5t31 -31.5h311q31 0 31 32q0 13 -9 22t-22 9zM332 352q-44 0 -74 -29.5t-30 -73.5t30 -73.5t74 -29.5
t74 29.5t30 73.5q0 46 -31 74.5t-73 28.5zM332 218q-17 0 -26.5 9.5t-9.5 26t9.5 26.5t26.5 10t26.5 -10t9.5 -26q0 -17 -11 -26.5t-25 -9.5zM827 285h-311q-31 0 -31 -31q0 -14 9 -23t22 -9h311q31 0 31 32q0 13 -9 22t-22 9z" />
    <glyph glyph-name="che1-copy" unicode="&#xe614;" 
d="M236.5 230q-39.5 0 -68 -28t-28.5 -67.5t28.5 -68t68 -28.5t67.5 28.5t28 68t-28 67.5t-67.5 28zM1002 168l-5 23q-3 15 -18 22h-81q27 -35 27 -79q0 -9 -2 -20h37q26 0 35.5 13.5t6.5 40.5zM793.5 230q-39.5 0 -67.5 -28t-28 -67.5t28 -68t67.5 -28.5t67.5 28.5t28 68
t-28 67.5t-67.5 28zM163 243q26 17 58 21h32v0q30 -4 56 -21h412q33 22 73 22t73 -22h99l-11 61q-6 27 -22.5 38t-54.5 16l-182 26l-26 19.5t-28.5 21t-26 16.5t-32 16.5t-31.5 10t-39 7.5l-6 10q-12 26 -39 26h-187q-29 0 -40 -24l-5 -12q-62 -5 -119.5 -53.5t-57.5 -81.5
v-97h104zM878 317h51q3 -6 6 -17l7 -36h-26q-25 0 -36 20l-9 18q-3 7 0 11t7 4zM653 373l-359 1l47 73h132q40 0 72.5 -10t52 -22.5t55.5 -41.5zM260 479q5 11 21 11h187q15 0 20 -13l1 -1v0h-230zM247 447h52l-46 -73h-76v-1h-61q17 24 55.5 49t75.5 25zM80 317h36
q8 0 11.5 -7t-3.5 -16l-24 -30h-20v53zM55 213q-9 -13 -10 -31v-21q0 -19 12 -27t43 -16q4 -1 6 -2q-1 10 -1 18q0 44 26 79h-76v0zM341 213q26 -35 26 -79q0 -9 -2 -20h300q-2 11 -2 20q0 44 27 79h-349z" />
    <glyph glyph-name="excel" unicode="&#xe651;" 
d="M624 352h224v-64h-224v64zM624 480h224v-64h-224v64zM624 224h224v-64h-224v64zM50 594v-512h512v512h-512zM375 192l-69 104l-32 -47h32v-57h-158l114 168l-101 152h85l60 -88l60 88h84l-101 -151l114 -169h-88zM926 694l-122 122q-20 20 -54 34t-62 14h-410
q-28 0 -48 -20t-20 -48v-138h55v138q0 5 4 9t9 4h410q6 0 14 -1v-217h216q2 -8 2 -36v-583q0 -5 -4 -9t-10 -4h-628q-5 0 -9 4t-4 9v46h-55v-46q0 -28 20 -48t48 -20h628q28 0 48 20t20 48v583q0 30 -14.5 75t-33.5 64zM756 646v139q6 -4 10 -8l121 -122q4 -4 8 -9h-139z
" />
    <glyph glyph-name="arrow-up-lg" unicode="&#xe620;" horiz-adv-x="1028" 
d="M478 884l-355 -354q-13 -13 -13 -30.5t13 -30.5q11 -11 27.5 -12t28.5 9l290 288v-842q0 -18 12.5 -30.5t30 -12.5t30 12.5t12.5 30.5v842l296 -295q30 -15 52 7q12 12 12 30q0 20 -15 34l-23 24l-65 65l-12 12l-254 253q-13 13 -33 12h-1v0q-20 1 -33 -12v0zM478 884z
" />
    <glyph glyph-name="zhinan" unicode="&#xe619;" 
d="M486 410h52v-52h-52v52zM512 -63q-91 0 -173.5 35.5t-142.5 95.5t-95.5 142.5t-35.5 173.5t35.5 173.5t95.5 142.5t142.5 95.5t173.5 35.5t173.5 -35.5t142.5 -95.5t95.5 -142.5t35.5 -173.5t-35.5 -173.5t-95.5 -142.5t-142.5 -95.5t-173.5 -35.5zM512 781
q-108 0 -199 -53.5t-144.5 -144.5t-53.5 -199t53.5 -199t144.5 -144.5t199 -53.5t199 53.5t144.5 144.5t53.5 199t-53.5 199t-144.5 144.5t-199 53.5zM617 254q-3 0 -6 1q-10 2 -15.5 11t-2.5 19l66 246l-246 -66q-10 -3 -19 2.5t-11.5 15.5t2.5 19t15 11l288 77q14 4 24 -6
t6 -24l-77 -288q-5 -18 -24 -18zM330 177q-10 0 -18 7q-10 10 -6 24l77 288q2 10 11 15t19 2.5t15.5 -11.5t2.5 -19l-66 -246l246 66q10 3 19 -2.5t11.5 -15.5t-2.5 -19t-15 -11l-288 -77q-3 -1 -6 -1z" />
    <glyph glyph-name="jiantou" unicode="&#xe6a3;" 
d="M944 896h-659q-33 0 -56.5 -24t-23.5 -56.5t23.5 -56.5t56.5 -24h461l-717 -717q-22 -22 -22 -55.5t22 -61.5q10 -29 51 -29q37 0 59 22l717 717v-461q0 -33 23.5 -57t56.5 -24t57 24t24 57v658q5 38 -17 63t-56 25z" />
    <glyph glyph-name="daoru" unicode="&#xe60c;" 
d="M1003 684q-69 35 -128.5 38.5t-113 -25.5t-101 -84.5t-98.5 -144.5l117 -68q14 -8 12 -23q-1 -5 -3 -9q-5 -8 -14 -10l-332 -129q-10 -2 -18.5 3t-11.5 14l-57 357q-4 15 8 24t26 1l119 -69q42 74 86 128t101 92.5t117.5 46.5t135.5 -20t155 -96v-26v0zM854 -71h-675
q-62 0 -106 44t-44 106v599q0 62 44 106t106 44h150v-70h-150q-31 0 -53 -22t-22 -53v-609q0 -31 22 -53t53 -22h675q31 0 52.5 22t21.5 53v380h75v-375q0 -62 -43.5 -106t-105.5 -44v0z" />
    <glyph glyph-name="4sdianbaoyang" unicode="&#xe649;" 
d="M162 712h559v-29h-559v29zM712 669h-541q-11 -35 -33 -102t-32 -98h671zM220 483h-28q9 34 24.5 97.5t17.5 74.5h28q-4 -17 -19 -78t-23 -94zM332 483h-28q10 66 26 172h28q-4 -29 -13 -86t-13 -86zM456 483h-28v86t-1 86h29v-172zM554 483q-10 66 -26 172h27
q5 -31 13.5 -88.5t12.5 -83.5h-27zM666 483q-8 30 -22 87t-21 85h28q9 -34 24.5 -98.5t17.5 -73.5h-27zM621 157h51v57q0 13 1 19q-3 -6 -8 -13zM928 232q-17 72 -76 115q-62 46 -141 35q-55 -7 -99.5 -46.5t-59.5 -94.5q-12 -40 -6 -82t27 -77q20 -33 52 -56.5t69 -32.5
q61 -14 117 9q35 14 63 41t43 62q26 61 11 127zM730 128h-23v-38h-35v38h-89v25l86 119h38v-115h23v-29zM823 87q-70 -1 -82 61l40 7q5 -37 42 -37q27 1 28 21q0 16 -19 23t-36 11q-50 11 -48 52q5 46 66 49q65 1 76 -51l-40 -8q-4 27 -34 27q-24 -1 -26 -17q-1 -16 33 -23
q23 -5 42 -15q29 -15 30 -46q-2 -53 -72 -54zM400 126v244q17 7 28 25.5t11 42.5h5q0 -29 16 -50t38 -21t38 21t16 50h5q0 -29 15.5 -50t38 -21t38 21t15.5 50h5q0 -26 13 -46q27 8 55 8q13 0 27 -2q2 0 3 -1q10 19 10 41v18h-671v-18q0 -29 16 -50t38 -21t38 21t16 50h5
q0 -29 15.5 -50t38 -21t38 21t15.5 50h5q0 -25 11.5 -43.5t29.5 -24.5v-244h-168v228v0h-41v0v-228h-40q-13 0 -22 -8.5t-9 -20.5t9 -21t22 -9h438q-18 28 -27 59h-134v0zM291 189q0 -11 7.5 -18.5t18 -7.5t18 7.5t7.5 18.5q0 14 -13 22v81q13 8 13 22q0 11 -7.5 18.5
t-18 7.5t-18 -7.5t-7.5 -18.5q0 -14 12 -22v-81q-12 -8 -12 -22zM450 272l106 106l10 -10l-106 -106zM460 176l76 76q6 18 15 35l-101 -101z" />
    <glyph glyph-name="sanjiaoxuanzhong" unicode="&#xe632;" 
d="M927 880h-843h-78v0l999 -998v0v75v848q0 31 -23 53t-55 22zM678 413v0v0l-185 141l51 66l118 -90l151 214l67 -50z" />
    <glyph glyph-name="gongyingshangguanli" unicode="&#xe64a;" 
d="M457 620q0 73 51.5 124t124 51t123.5 -51t51 -123.5t-51 -123.5t-123.5 -51t-124 51t-51.5 123v0zM706 428h-148q-102 0 -156 -53h237v-360h-116q21 -10 25.5 -14t4.5 -10q0 -8 -3 -12q56 -6 102 -6q73 0 140.5 13t90 21.5t34.5 14.5l12 6h3v182q0 92 -66 155t-160 63v0z
M526 -11q0 -7 -47.5 -11.5t-115 -4.5t-115.5 4.5t-48 11.5q0 10 92 14v25h-199v332h521v-332h-202v-24q114 -4 114 -15v0zM574 55v280h-441v-280h441zM211 81h37v159h-37v-159zM267 81h25v120h-25v-120zM305 81h37v199h-37v-199zM445 81h36v159h-36v-159zM400 81h26v120h-26
v-120zM361 81h25v174h-25v-174zM355 78z" />
    <glyph glyph-name="konghezi" unicode="&#xe642;" 
d="M957 332v1l-199 179l-202 -1q9 9 32 25q16 11 24.5 18.5t20.5 21.5t17.5 33t5.5 44q0 65 -46 104q-41 34 -100 34q-61 0 -104 -37q-49 -42 -49 -113h41q0 52 35 82q31 27 77 27q42 0 73.5 -25t31.5 -72q0 -23 -7.5 -39t-16 -24t-27.5 -21q-43 -30 -60 -59l-237 -1
l-200 -176l1 -1h-3v-357h894v357h-2zM280 474l210 2q-8 -29 -8 -65h41q0 39 10 65l212 1l161 -145h-259q-3 -53 -42 -89.5t-93 -36.5t-93 36.5t-42 89.5h-258zM924 10h-824v288h248q14 -56 60 -91.5t104.5 -35.5t104 35.5t59.5 91.5h248v-288v0zM481 375h41v-48h-41v48z" />
    <glyph glyph-name="xiangmusucai" unicode="&#xe770;" horiz-adv-x="1280" 
d="M532 339q-7 0 -12 3l-443 241q-14 8 -14 23q1 16 15 23l447 225q5 3 11.5 3t12.5 -3l442 -224q14 -8 14 -23q0 -16 -13 -24l-448 -241q-5 -3 -12 -3v0zM140 605l392 -217l397 217l-392 203l-397 -203v0zM527 120q-7 0 -13 3l-442 241q-14 8 -14 23q1 16 15 23l91 46
l50 -30l-80 -40l393 -217l397 217l-75 38l50 30l87 -44q14 -7 14 -23t-14 -23l-447 -241q-6 -3 -12 -3v0zM527 -89q-7 0 -13 3l-442 241q-14 8 -13.5 23.5t14.5 22.5l84 39l10 -29l-30 -35l390 -216l395 216l-26 36l10 29l80 -40q14 -7 14 -23q0 -15 -14 -23l-447 -241
q-6 -3 -12 -3v0z" />
    <glyph glyph-name="mingxi3" unicode="&#xe637;" 
d="M902 596v0q0 3 -2 6v1q-2 3 -4 5v0l-278 264v0v0v0q-2 2 -5 3l-1 1l-6 2v0h-4h-400q-28 0 -47.5 -18.5t-19.5 -45.5v-864q0 -27 19.5 -45.5t47.5 -18.5h634q28 0 47.5 18.5t19.5 45.5v642q0 2 -1 4zM823 614h-198v189zM856 -50q0 -8 -6 -14t-14 -6h-634q-9 0 -15 6t-6 14
v864q0 8 6 14t15 6h376v-242q0 -9 7 -15.5t17 -6.5h254v-620v0zM711 157h-397q-10 0 -16.5 -6.5t-6.5 -16.5t6.5 -16.5t16.5 -6.5h397q9 0 15.5 6.5t6.5 16.5t-6.5 16.5t-15.5 6.5zM711 310h-397q-10 0 -16.5 -6.5t-6.5 -16.5t6.5 -16.5t16.5 -6.5h397q9 0 15.5 6.5
t6.5 16.5t-6.5 16.5t-15.5 6.5zM291 440q0 -9 6.5 -16t15.5 -7h398q9 0 15.5 7t6.5 16.5t-6.5 16.5t-15.5 7h-398q-9 0 -15.5 -7t-6.5 -17v0z" />
    <glyph glyph-name="wenhao" unicode="&#xe62b;" horiz-adv-x="1027" 
d="M513.5 896q-104.5 0 -199 -40.5t-163 -109t-109 -163.5t-40.5 -199t40.5 -199t109 -163.5t163 -109t199 -40.5t199 40.5t163.5 109t109.5 163.5t40.5 199t-40.5 199t-109.5 163.5t-163.5 109t-199 40.5zM510 29q-23 0 -39 16t-16 39t16 39.5t39 16.5t39.5 -16.5
t16.5 -39.5t-16.5 -39t-39.5 -16zM711 478q-15 -32 -64 -79t-66 -68q-16 -20 -24 -47q-8 -28 -7 -75h-86q0 55 8.5 87.5t26.5 56.5q18 25 63.5 72t58.5 69q14 21 14 63.5t-30.5 75.5t-87.5 33q-130 0 -130 -154h-86q2 70 17 106q14 37 46.5 65.5t72 42.5t83.5 14
q88 0 147 -52.5t59 -138.5q0 -40 -15 -71z" />
    <glyph glyph-name="iconfontguanliyuan-copy" unicode="&#xe652;" 
d="M722 671q0 87 -61.5 148.5t-148.5 61.5t-148.5 -61.5t-61.5 -148.5t61.5 -148.5t148.5 -61.5t148.5 61.5t61.5 148.5zM792 391h-38l-218 -443l81 408l-105 105l-105 -105l81 -408l-218 443h-38q-23 0 -42 -4t-32.5 -9t-24 -16.5t-17.5 -20t-12 -26t-7.5 -28.5t-3.5 -33.5
t-1 -35v-38.5v-293h840v293v38.5t-1 35t-3.5 33.5t-7.5 28.5t-12 26t-17.5 20t-24 16.5t-32.5 9t-42 4z" />
    <glyph glyph-name="daochu" unicode="&#xe60d;" 
d="M123 -60q-24 0 -40.5 17t-16.5 40v630q0 24 16.5 40.5t40.5 16.5h133q35 0 47.5 -32.5t-14.5 -55.5l-17 -16h-102v-534h565v125l13 10q15 10 33 10q24 0 41 -16.5t17 -40.5v-137q0 -23 -17 -40t-41 -17h-658zM624 414q-49 -1 -86 -4q-7 0 -17 -1q-19 -1 -45 -7
q-52 -14 -98 -43q-6 -4 -21 -13q-75 -46 -94 -69q-9 -12 -22 -12q-4 0 -7 1q-20 5 -20 26v1l1 2q19 95 49 161t78 115q48 51 123 74q67 21 159 22v167l334 -293l-334 -294v167z" />
    <glyph glyph-name="biaoqing" unicode="&#xe640;" 
d="M510 891q-103 0 -197 -40.5t-162 -108t-108 -161t-40 -196.5t40 -197t108 -161.5t162 -107.5t197.5 -40t197.5 40t162 107.5t108 161.5t40 197t-40 196.5t-108 161t-162 108t-198 40.5v0zM510 -54q-89 0 -170.5 34.5t-140.5 93.5t-94 140t-35 170.5t35 170.5t94 140
t140.5 93.5t171 34.5t171 -34.5t140.5 -93.5t93.5 -140t34.5 -170.5t-34.5 -170.5t-93.5 -140t-140.5 -93.5t-171.5 -34.5v0zM697 511q21 0 35.5 15t14.5 36t-14.5 35.5t-36 14.5t-36 -14.5t-14.5 -35.5t14.5 -36t36.5 -15v0zM745 410q-14 0 -24 -10t-10 -24v0
q-12 -72 -69 -120.5t-132 -48.5t-131.5 48.5t-68.5 120.5v0q0 14 -10 24t-24 10t-24 -10t-10 -24v0v-0.5v-0.5q0 -4 1 -7q15 -97 91 -162.5t176.5 -65.5t176.5 65.5t91 163.5q1 2 1 5v1v1v0q0 14 -10 24t-24 10v0zM324 511q21 0 36 15t15 36t-15 35.5t-36 14.5t-36 -14.5
t-15 -35.5t15 -36t36 -15v0z" />
    <glyph glyph-name="gerenzhongxin" unicode="&#xe643;" 
d="M932 497h-224q-12 0 -20 -8.5t-8 -20t8 -19.5t20 -8h224q11 0 19.5 8t8.5 19.5t-8.5 20t-19.5 8.5zM932 161h-168q-12 0 -20 -8.5t-8 -20t8 -19.5t20 -8h168q11 0 19.5 8t8.5 19.5t-8.5 20t-19.5 8.5zM708 609h224q11 0 19.5 8t8.5 19.5t-8.5 20t-19.5 8.5h-224
q-12 0 -20 -8.5t-8 -20t8 -19.5t20 -8zM567 375q57 77 57 178q0 115 -74 197t-178 82t-178 -82t-74 -197q0 -101 58 -178q-51 -17 -82.5 -60.5t-31.5 -97.5v-112q0 -70 49.5 -119t118.5 -49h280q70 0 119 49t49 119v112q0 54 -31.5 97.5t-81.5 60.5zM176 552.5
q0 92.5 57.5 158t138.5 65.5t138.5 -65.5t57.5 -158t-57.5 -158t-138.5 -65.5t-138.5 65.5t-57.5 158zM624 119q0 -52 -40.5 -89t-96.5 -37h-229q-57 0 -97.5 37t-40.5 89v84q0 44 30 78t76 44q66 -52 146.5 -52t145.5 52q46 -10 76 -44t30 -78v-84zM932 329h-168
q-12 0 -20 -8.5t-8 -20t8 -19.5t20 -8h168q11 0 19.5 8t8.5 19.5t-8.5 20t-19.5 8.5z" />
    <glyph glyph-name="tingzhi1" unicode="&#xe747;" 
d="M910 552q-33 78 -92.5 137.5t-137.5 92.5q-80 34 -168 34t-168 -34q-78 -33 -137.5 -92.5t-92.5 -137.5q-34 -80 -34 -168t34 -168q33 -78 92.5 -137.5t137.5 -92.5q80 -34 168 -34t168 34q78 33 137.5 92.5t92.5 137.5q34 80 34 168t-34 168zM512 -3q-105 0 -194 52
t-141 141t-52 194t52 194t141 141t194 52t194 -52t141 -141t52 -194t-52 -194t-141 -141t-194 -52zM599 451q0 8 -6 14t-15 6h-133q-8 0 -14 -6t-6 -14v-133q0 -9 6 -15t14 -6h133q9 0 15 6t6 15v133z" />
    <glyph glyph-name="shanchu" unicode="&#xe61b;" 
d="M512 770q-104 0 -191.5 -51t-139 -139t-51.5 -191.5t51.5 -191.5t139 -139t191.5 -51t191.5 51t139 139t51.5 191.5t-51.5 191.5t-139 139t-191.5 51zM693 354h-362q-15 0 -25 10t-10 24.5t10 24.5t25 10h362q15 0 25 -10t10 -24.5t-10 -24.5t-25 -10z" />
  </font>
</defs>
</svg>
