<?xml version="1.0" encoding="utf-8"?>
<svg version="1.1" xmlns="http://www.w3.org/2000/svg" width="300" height="300" viewBox="0 0 100 100">
	<g>
		<linearGradient id="bg" gradientUnits="userSpaceOnUse" x1="50" y1="0" x2="50" y2="100">
			<stop offset="0" style="stop-color:#b7c"/>
			<stop offset="1" style="stop-color:#97f"/>
		</linearGradient>
		<circle fill="url(#bg)" cx="50" cy="50" r="50"/>
	</g>
	<g fill="#fff">
		<path d="M35.54,53.99h-3.96v16.74H23.9V29.27h10.38c10.38,0,15.24,4.32,15.24,12.18c0,5.46-2.22,8.82-7.14,10.98l9.3,18.3h-8.34L35.54,53.99z M34.64,48.47c4.8,0,6.96-2.16,6.96-7.02c0-4.5-2.1-6.6-7.38-6.6h-2.64v13.62H34.64z"/>
		<path d="M76.4,34.97H63.56v11.88h11.22v5.64H63.56v12.48H77.3v5.76H55.88V29.27h21.36L76.4,34.97z"/>
	</g>
</svg>